<svg xmlns="http://www.w3.org/2000/svg" width="5376" height="4032"  xmlns:v="https://vecta.io/nano"><path d="M2539.493 574.071c-54.657-15.277-94.214-22.278-168.543-48.337-23.96-27.493-47.153-34.714-67.781-97.813-.156-43.062 14.796-73.961 28.585-108.424 36.473-40.269 112.023-57.59 199.9-67.672 129.32-20.979 280.789-14.643 423.317-19.335 186.312 18.261 378.964 16.618 560.503 74.117 86.578 14.07 140.627 54.798 148.945 141.788 8.481 65.122-56.597 95.814-82.312 122.453-38.929 20.349-102.406 27.037-177.708 34.571m-864.906-31.349c7.197-15.55 18.357-24.259 47.291-27.896 192.889-49.108 484.793-.884 742.21 16.357 28.658 4.226 78.713 23.876 75.405 42.887-111.637 42.55-718.437 34.601-864.906-31.349z" fill="none" stroke="#000" stroke-width="9"/></svg>