<svg xmlns="http://www.w3.org/2000/svg" width="5376" height="4032"  xmlns:v="https://vecta.io/nano"><g fill="none"><g stroke-width="9.449"><path d="M3551.662 3151.775z" stroke="#000"/><path d="M3699.461 2745.345c-.507-16.782-16.011-18.568-26.77-25.097-9.851-66.447 6.266-66.528 15.058-85.331 21.17-26.213 46.465-52.425 48.521-78.638-17.119-23.982.681-47.964 8.366-71.946-24.071-21.149-54.44-39.148-61.907-68.599-22.724 20.22-52.061 33.828-83.658 45.175l-18.405 1.673c2.589 14.005-9.177 22.941-8.366 38.483 8.856 14.066 11.777 33.629 18.405 61.07l8.316 26.558c14.934 20.919 28.318 43.893 35.186 75.504 10.762 18.633 10.71 56.381 15.058 87.841zm33.528-173.828c7.71 6.497 17.49 11.077 28.394 10.944m28.986 53.831c5.258 12.456 14.625 16.694 24.549 19.817m-122.451 74.831c3.935-10.253 9.104-20.507 17.746-30.761 14.63-14.152 29.096-28.375 49.099-40.225 7.493-9.957 16.07-19.157 31.352-23.662-3.256-12.081-6.25-24.332 5.916-46.437l9.761-21c5.899 16.515 16.406 19.203 25.141 27.211 3.435 6.587 8.087 12.904 4.732 21-.283 29.071-6.525 55.976.887 87.845 1.361 9.208 1.522 20.815 5.028 25.732 1.449 6.157 6.481 6.941 10.944 8.577m-19.761-65.822c-3.955 4.448-6.621 5.213-14.222 20.078-7.192 13.181-13.606 26.984-23.424 38.064-5.753 4.806-9.312 11.497-12.13 18.823m128.988 53.927c-13.393 17.823-21.506 39.165-25.437 63.296m-44.366 5.324c-20.212-50.463-33.424-102.055-5.324-160.31m-15.38 53.239c-26.346-18.637-67.316-25.729-123.634-20.704m-78.676 114.169c12.159-8.489 8.457-26.041 10.648-40.225 61.374 35.606 125.379 43.845 194.62-2.366m-195.211 2.958c3.669-21.523-.089-38.994 19.521-69.211m-117.718 21.887c13.026.291 26.233.394 40.817 5.324 13.668 8.445 16.536 14.19 17.747 19.521l7.099 52.056c-.871 7.468-4.935 10.146-8.873 13.014-13.211 4.996-26.423 8.071-39.634.592m390.423-148.479c11.112-32.465 19.044-68.111 25.437-105.296 8.607-28.194 2.78-61.542-10.648-97.606-18.586-60.09-47.458-109.894-73.352-162.676-4.756-47.153-11.11-93.303-82.225-98.789m7.69 318.253c-13.133-23.398-32.21-48.605-28.394-66.845l8.282-10.648c-15.333 7.071-30.692 14.299-41.408-7.099m97.606 387.465c13.559 9.241 25.864 7.199 37.859 2.366 26.2-20.933 37.659-43.972 33.008-69.313l22.801-45.245c2.574-14.332 7.444-24.836 5.713-46.344l70.394-169.775c10.204-16.334 9.451-33.763 3.938-51.668-15.553-65.054-56.368-148.065-83.797-221.036-6.169-64.24-23.331-100.998-47.324-120.676l-139.606-56.789-130.141-85.183-132.507-78.084-104.113-59.155-42.591-56.789-47.324-21.296-16.563-30.761-18.93-3.346-16.563-13.217-49.69-16.563c-28.639-1.233-37.831-8.948-54.423-14.197l-383.324-298.141c-244.058-164.863-294.588-218.75-411.718-260.282-50.615-29.952-110.941-54.561-151.491-77.607-187.698-106.671-259.294-145.671-307.551-156.647l2.366 648.338 309.972 170.366c104.059 46.816 205.046 94.656 321.803 137.239l283.944 89.916c51.091 13.442 65.267 21.205 168 42.592l32.364 6.812m0 0c26.764 8.344 122.693 62.575 126.171 57.076l57.195 59.442c52.775 62.704 63.073 135.959 80.045 200.84 22.176 33.622 50.611 65.158 99.38 89.916l40.225 87.549 47.324 68.62c13.196 45.747 19.916 91.493 49.69 137.239l33.127 40.225c5.179 44.66 3.243 85.724 24.253 118.901 20.677 1.805 45.541 12.71 65.662-17.155l7.099 66.253c64.259 48.017 149.162 47.657 215.291-7.88l.624-44.768" stroke="#00000a"/></g><path d="M5934.423 2441.916z" stroke="#000"/></g><g fill="#fff"><path d="M3560.772 2874.332c-3.579-.542-6.507-2.095-6.507-3.451 0-1.431 2.419-1.859 5.765-1.019 9.23 2.317 28.552-2.926 34.63-9.396 5.466-5.818 5.469-5.869 2.433-33.584-3.512-32.052-6.404-40.467-16.341-47.543-7.39-5.262-25.812-9.791-39.824-9.791-7.1 0-7.961-.702-7.977-6.507-.012-4.604-5.601-13.38-19.106-30.005-27.511-33.866-37.958-56.511-54.205-117.493-5.252-19.713-10.271-37.048-11.155-38.524s-11.845-17.59-24.358-35.809c-17.371-25.291-27.442-43.38-42.578-76.476-16.81-36.756-20.928-43.913-27.076-47.053-26.344-13.456-69.219-51.636-85.336-75.991-4.362-6.591-9.687-22.901-16.897-51.756-16.958-67.861-31.449-104.583-54.748-138.738-11.013-16.144-73.437-82.592-76.065-80.968-.986.61-17.135-6.391-35.886-15.558-57.365-28.043-88.073-41.63-97.98-43.353-77.633-13.501-194.909-46.626-398.414-112.533-124.215-40.228-171.282-59.266-380.064-153.731-18.358-8.306-317.851-172.084-322.126-176.155-1.957-1.864-3.138-73.596-4.336-263.434l-1.646-260.873h119.682 119.682l34.907 19.778c43.76 24.794 184.712 95.658 210.006 105.579 46.616 18.286 86.104 42.458 200.673 122.836l134.614 93.889c26.937 18.594 134.645 100.442 239.351 181.883 202.341 157.383 201.566 156.846 232.277 161.007 19.152 2.595 61.624 17.478 70.889 24.842 4.674 3.715 12.783 7.478 18.019 8.362 8.844 1.494 10.044 2.671 16.9 16.573l7.38 14.965 23.511 10.241 23.511 10.241 21.621 28.763 21.621 28.763 44.958 25.473c96.53 54.694 195.943 114.451 258.216 155.213l65.127 42.63 69.032 27.884c78.074 31.537 80.952 33.438 95.155 62.862 8.264 17.121 16.302 46.732 18.923 69.707 1.762 15.443 1.45 14.583 34.594 95.475 29.883 72.934 39.725 99.403 48.3 129.903 9.777 34.774 8.955 38.782-24.01 116.98l-28.655 66.157c-.296-.296 2.61-15.935 6.459-34.753 11.191-54.719 9.17-76.382-12.706-136.196-12.686-34.686-22.302-56.324-47.742-107.426-16.139-32.418-19.886-42.116-22.089-57.158-7.601-51.906-27.45-73.874-73.142-80.947-8.083-1.251-10.056-.855-10.056 2.02 0 2.196 2.187 3.577 5.666 3.577 3.117 0 12.835 2.214 21.596 4.92 30.151 9.313 44.353 30.563 50.564 75.662 1.686 12.238 6.369 23.972 22.193 55.606 38.389 76.742 61.088 136.777 66.074 174.757 2.318 17.655 1.935 22.076-4.941 56.999-4.099 20.823-10.56 49.572-14.356 63.887s-7.41 34.962-8.029 45.881c-1.044 18.396-2.105 21.782-14.458 46.141-7.332 14.458-16.95 32.676-21.372 40.485s-9.832 21.118-12.021 29.577c-4.998 19.309-11.568 26.028-25.452 26.028-15.345 0-19.414-4.378-27.485-29.575-9.158-28.59-12.865-52.649-11.197-72.685 1.36-16.338 8.192-44.455 10.796-44.429.805.01 3.277 3.203 5.494 7.099 3.826 6.724 13.716 10.125 13.716 4.717 0-1.301-1.04-2.366-2.312-2.366-10.477 0-17.639-47.256-14.45-95.34 2.549-38.429 1.167-44.481-12.259-53.681-7.572-5.188-25.929-33.801-40.565-63.227-4.887-9.826-4.8-21.673.2-27.198 6.185-6.834 1.028-9.86-9.387-5.509-12.956 5.413-15.48 4.672-30.014-8.819l-31.387-28.384c-12.591-11.163-19.919-19.877-24.376-28.986-6.393-13.066-8.889-15.258-11.876-10.425-3.378 5.465-37.08 25.551-56.542 33.698-11.186 4.682-25.635 9.216-32.108 10.075-9.312 1.235-11.77 2.476-11.77 5.939 0 2.408-2.232 11.177-4.96 19.486-4.691 14.288-4.747 15.518-1.052 22.665 2.149 4.157 7.496 21.803 11.881 39.214 8.312 33.003 11.554 41.17 27.245 68.633 14.182 24.822 27.752 69.749 31.805 105.296 2.745 24.076 2.811 30.458.352 34.31-7.904 12.385-13.083 32.913-15.605 61.85-2.373 27.227-3.351 31.428-9.29 39.896-10.752 15.331-19.717 20.172-36.586 19.758-7.941-.195-17.367-.798-20.946-1.34zm-8.696-14.277c-5.917-4.824-10.746-21.832-14.259-50.22-4.143-33.48-4.212-33.189 7.871-33.189 15.994 0 24.076 2.316 32.434 9.293 7.258 6.06 7.918 7.968 11.974 34.644 2.361 15.527 3.743 29.995 3.072 32.151-1.536 4.928-17.518 11.461-28.04 11.461-4.384 0-10.257-1.863-13.051-4.141zm142.978-18.29c-15.568-3.427-32.949-9.894-50.517-18.797l-11.38-5.767 1.94-16.136c2.006-16.683 7.486-34.724 12.72-41.883 7.403-10.124 99.292-15.5 131.85-7.714 8.796 2.104 21.307 6.518 27.803 9.809l11.81 5.985.032 19.481c.018 10.715.629 21.703 1.358 24.419 1.139 4.24-1.455 6.332-18.37 14.821-35.633 17.882-72.838 23.357-107.245 15.782zm-6.989 110.146c-15.404-4.291-44.5-17.669-54.022-24.839-3.302-2.486-4.964-9.863-7.625-33.838-3.271-29.477-3.223-31.012 1.265-39.814 2.567-5.035 4.667-13.739 4.667-19.342v-10.187l12.423 6.296c55.335 28.046 112.519 27.898 164.451-.427 10.907-5.949 14.789-7.155 14.789-4.596 0 1.909 3.711 14.4 8.247 27.758 7.723 22.742 8.15 25.567 6.714 44.4-1.708 22.401-.821 21.115-24.511 35.503-26.336 15.994-46.262 21.628-80.366 22.721-24.108.773-32.62.101-46.031-3.635z"/><path d="M3768.406 2743.384c-5.206-1.077-22.242-2.027-37.859-2.113-28.229-.154-28.411-.191-31.26-6.327-2.422-5.217-2.121-7.632 1.943-15.597 6.624-12.985 21.023-28.075 42.194-44.219 9.836-7.501 22.454-18.074 28.04-23.496 9.307-9.034 19.421-13.02 19.421-7.653 0 3.168 12.193 11.399 19.665 13.274 9.318 2.338 8.015-2.895-1.735-6.968-10.692-4.468-15.609-12.495-17.058-27.849-1.026-10.873-.111-14.792 6.659-28.513l7.848-15.907 13.826 12.952 13.826 12.952-1.671 33.716c-1.343 27.089-2.485 34.646-5.814 38.448-2.279 2.603-8.177 12.186-13.108 21.296-9.043 16.707-31.716 48.739-34.143 48.235l-10.776-2.23zm-86.767-22.413c-5.524-3-6.526-5.393-7.991-19.074-3.61-33.71.869-45.041 34.392-87.004 10.206-12.776 19.841-26.328 21.41-30.117 3.189-7.699 5.52-8.251 14.11-3.34 6.793 3.883 18.93 4.671 18.93 1.228 0-1.277-2.928-3.023-6.507-3.881s-9.369-3.001-12.868-4.763c-5.501-2.769-6.187-4.274-5.074-11.133.803-4.952-.14-10.69-2.513-15.278-2.09-4.041-3.799-9.999-3.799-13.239 0-5.088 10.773-38.724 13.277-41.455.49-.534 2.845.797 5.232 2.958 2.585 2.34 8.335 3.929 14.212 3.929 9.374 0 9.87.354 9.87 7.051 0 9.349 5.759 23.465 18.217 44.652l10.227 17.393-8.683 19.232c-6.87 15.216-8.657 22.067-8.555 32.81.128 13.565.118 13.584-10.162 19.608-5.66 3.317-11.719 8.07-13.464 10.562s-9.662 9.308-17.592 15.146c-20.615 15.176-41.811 36.6-47.773 48.285-5.695 11.164-5.966 11.281-14.897 6.431zm17.142 121.878c-16.529-3.488-33.211-9.438-50.057-17.853l-15.57-7.778 1.928-16.019c2.105-17.484 7.374-35.089 12.546-41.916 7.872-10.391 98.723-15.765 132.039-7.809 8.796 2.1 21.307 6.512 27.803 9.803l11.81 5.985v17.411c0 9.576.604 20.472 1.342 24.214 1.247 6.323.336 7.353-12.923 14.603-25.468 13.926-46.014 19.7-73.603 20.684-13.665.487-29.557-.108-35.315-1.323zm-8.444 109.807c-13.731-3.319-47.638-18.655-56.347-25.486-3.349-2.627-5.007-9.965-7.657-33.91-3.256-29.411-3.207-30.903 1.317-39.776 2.585-5.07 4.7-13.715 4.7-19.212v-9.994l17.403 8.041c20.771 9.597 46.685 16.772 67.78 18.766 27.477 2.598 70.561-8.194 96.81-24.25l8.078-4.941 9.122 27.658c8.638 26.189 9.043 28.737 7.619 47.976l-1.503 20.318-14.514 9.775c-18.563 12.502-38.836 21.373-58.288 25.507-19.648 4.175-56.254 3.943-74.519-.472z"/></g></svg>