<svg xmlns="http://www.w3.org/2000/svg" xmlns:xlink="http://www.w3.org/1999/xlink" width="5376" height="4032" xmlns:v="https://vecta.io/nano"><path d="M2826.794 1479.604l232.568-85.331c36.298-7.479 73.748-13.366 133.016 10.876 58.312 31.999 97.549 72.582 111.265 124.65 5.631 29.205 8.584 57.518 7.529 84.494l-17.543 211.273c.091 12.076-.682 17.24-1.699 20.459l-26.771 130.506c-7.25 11.632-14.501 5.781-21.751 0l-1.673-135.525c-.743-4.928-.34-12.148 0-19.241l15.895-233.405c-5.969-62.546-20.409-68.623-32.626-89.514-33.914-37.149-73.779-48.792-115.448-52.704-99.748 25.471-189.101 69.651-283.6 104.572-16.297-17.992-22.938-38.366-22.588-61.907zm-658.804 379.806l-27.189-64.417c-2.684-5.995-5.155-11.178-8.785-12.128-5.723-1.498-13.086 3.797-19.241 4.599l-56.051 21.751c-5.255.938-9.065 2.132-10.177 4.105-1.384 2.457.724 5.892 1.393 8.862l26.77 70.273c51.649 20.504 74.662-2.899 93.278-33.045zm683.065-200.779c54.466 9.778-18.042-235.873-105.409-277.744l-218.347 91.187c-21.399-33.294-48.556-57.95-77.802-79.475-31.289-17.186-59.646-10.915-87.841-3.346l-307.024 127.996c12.286 56.16 35.99 103.042 66.09 144.728 20.07 30.015 33.746 63.964 39.319 102.899 8.681 30.747 25.367 81.472 20.078 89.095-3.369 17.127-11.181 29.811-20.078 41.411-15.531 14.135-34.805 15.79-53.541 19.241-31.193-1.742-52.385-20.986-70.272-46.012-57.918-73.314-63.024-117.706-76.129-166.479-11.755-55.634-44.048-89.588-75.292-124.65-36.914-35.956-83.353-57.622-126.323-84.494-76.861-26.513-133.571-80.154-181.537-145.564-36.533-22.984-83.574-33.957-106.245-72.782-7.201-1.443-12.582-4.707-14.222-11.712-9.656-.488-17.66-4.278-25.097-9.202h0l-1.007-389.858c59.602 14.208 115.148 42.615 170.366 72.169 53.635 28.76 106.794 57.792 168 82.225l218.873 92.282 115.944 45.549c23.922 5.091 44.393 19.383 65.07 33.127 21.373 7.085 42.747 14.376 64.12 19.306 21.859 2.45 43.778 4.495 61.288 36.3l46.141 75.718c16.951 21.056 33.939 42.075 51.982 62.039m-337.701 135.539c4.301-23.023 3.858-47.915 17.451-68.028 14.108-16.457 29.582-39.581 50.577-50.873 15.105-8.516 29.259-15.153 47.324-14.789 27.419-.117 36.193 11.331 48.595 17.659 4.461 2.276 10.186 7.481 14.11 10.735l21.887 22.479m-178.056 10.648c5.539 7.795 16.168 7.967 29.577 9.465 5.688-.099 10.097.489 17.233-1.057 17.326-5.771 35.244-6.777 52.57-3.083l18.338 7.099m-135.669 44.232c4.74 5.508 11.941 4.866 18.823 5.02m449.242-35.973c16.967 92.159 33.565 184.345 116.702 271.888m102.481-362.656c-2.727 88.548 24.075 180.289 103.736 277.744l-205.798 84.494c7.461 25.376 6.91 50.752 5.856 76.129-5.113 28.699-15.842 53.888-46.012 66.926l-762.958 291.965c-61.45 10.299-79.76-.973-104.99-8.784-37.536-12.391-66.606-35.668-96.625-57.724-27.922-30.896-52.947-66.426-75.292-106.245-17.597-30.088-31.69-63.68-35.973-107.082-.655-29.138-8.041-46.31 10.039-108.755 8.24-16.453 14.497-32.905 30.117-49.358 11.492-15.602 24.812-30.783 50.613-43.084l276.071-108.755m736.201-158.376c-.742 95.524 42.733 196.302 110.028 275.07" fill="none" stroke="#000" stroke-width="7.559"/><g fill="#fff"><path d="M2078.829 1902.278c-19.836-10.058-33.493-24.679-59.682-63.898-24.864-37.234-36.068-63.41-50.265-117.435-6.672-25.39-15.9-53.693-20.506-62.895-17.072-34.107-54.291-80.005-82.562-101.815-25.679-19.812-100.862-64.415-127.066-75.384-48.034-20.108-103.635-64.852-140.959-113.437-14.992-19.515-20.757-23.918-55.457-42.361-36.243-19.262-47.5-27.358-65.614-47.186-11.719-12.828-18.568-17.808-29.391-21.373l-10.16-3.346-.864-191.576 1.665-191.576c13.145 0 79.451 27.942 138.071 58.185 147.033 75.857 259.076 125.834 448.405 200.014 99.44 38.961 110.352 43.672 130.506 56.348 15.3 9.623 56.458 23.231 90.984 30.081 10.471 2.078 22.751 6.698 27.289 10.268s21.939 28.705 38.67 55.856 40.072 60.659 51.871 74.463l21.452 25.097-11.674 2.515c-6.421 1.383-35.656 12.495-64.967 24.692l-53.293 22.177-16.258-15.208c-49.444-46.249-102.467-43.158-149.582 8.72-22.722 25.019-30.086 40.187-35.052 72.194-3.541 22.819-3.208 26.204 5.228 53.263 10.456 33.537 30.202 73.26 57.989 116.658 19.416 30.324 28.519 53.879 42.454 109.855l12.241 46.848c5.315 19.423 5.759 25.659 2.602 36.504-9.407 32.312-27.707 47.056-63.274 50.978-12.082 1.332-18.877-.164-32.799-7.223zm49.962-1.734c8.031-2.231 17.648-9.344 27.607-20.421 8.406-9.349 15.283-18.012 15.283-19.251s-7.28-19.523-16.177-40.63c-13.974-33.153-17.311-38.514-24.51-39.38-8.669-1.043-78.527 24.075-85.351 30.689-2.951 2.86-.515 12.71 10.039 40.586 7.665 20.245 15.139 38.668 16.61 40.939 6.007 9.276 35.807 13.215 56.498 7.468zm51.256-450.67c-9.721-3.559-18.882-4.217-33.463-2.405-29.92 3.719-57.782 3.56-61.691-.353-5.96-5.965 24.078-36.606 47.223-48.172 25.612-12.799 47.115-13.657 68.948-2.753 15.193 7.588 44.236 31.051 44.236 35.738 0 1.934-40.494 20.038-50.146 22.42-.947.234-7.745-1.781-15.107-4.476zm-117.457 38.86c1.206-7.542 4.402-19 7.102-25.462 3.807-9.112 6.228-11.218 10.784-9.382 12.565 5.065 31.501 5.713 52.294 1.789 20.326-3.835 48.971-2.241 48.933 2.723-.03 3.975-101.778 44.153-111.675 44.098-9.394-.052-9.576-.39-7.437-13.766zm25.727 404.205c-10.494-3.671-12.445-6.703-24.099-37.457-6.974-18.405-12.753-34.989-12.842-36.854-.166-3.469 69.344-31.745 78.036-31.745 2.643 0 6.3 4.141 8.127 9.202s8.635 21.489 15.129 36.507l11.807 27.304-12.089 14.123c-18.716 21.866-38.741 27.779-64.07 18.92zm-344.231 275.315c-46.89-15.565-94.604-48.648-124.656-86.43-26.486-33.299-60.102-88.066-71.945-117.213-9.831-24.193-18.295-70.306-18.295-99.669 0-30.127 8.852-69.744 20.47-91.612 12.06-22.7 44.986-59.628 60.29-67.619 6.195-3.234 72.202-29.898 146.683-59.254 154.238-60.791 136.454-58.396 162.399-21.87 21.614 30.429 30.093 49.706 41.973 95.433 13.764 52.976 27.825 86.3 51.305 121.588 39.277 59.029 65.583 78.454 101.263 74.771 36.972-3.816 53.488-16.683 67.186-52.342 5.655-14.722 5.602-15.288-5.348-56.887l-15.429-62.182c-6.489-29.948-18.975-58.188-39.965-90.39-25.063-38.449-41.205-70.91-52.357-105.282-7.622-23.492-8.417-28.9-4.57-31.064 13.037-7.335 296.682-124.254 311.043-128.213 21.791-6.007 45.793-5.921 60.48.215 17.852 7.459 50.467 34.474 69.938 57.929 17.224 20.748 17.553 21.572 26.77 66.926 18.693 91.987 43.578 150.369 87.59 205.492 22.903 28.684 24.267 31.365 26.477 51.998 4.918 45.927-6.158 85.294-28.468 101.18-5.524 3.933-97.798 40.763-205.054 81.843l-385.357 147.562-190.347 72.87-30.51 1.265c-27.096 1.123-33.985.111-61.568-9.045zm878.116-455.188c-25.846-32.686-48.476-74.988-62.548-116.922-11.591-34.54-30.498-119.73-27.037-121.825 2.915-1.765 91.066-38.798 92.351-38.798.564 0 2.109 11.67 3.434 25.934 6.728 72.416 38.774 152.036 87.546 217.51 9.94 13.343 17.442 24.261 16.671 24.261s-21.205 8.189-45.409 18.199l-44.009 18.199zm100.244-37.676c-49.856-66.851-83.399-151.694-86.194-218.022l-1.108-26.279 51.342-21.456c28.238-11.801 51.968-20.83 52.733-20.065s2.847 16.666 4.625 35.335c6.954 72.98 32.207 139.406 76.432 201.046 9.959 13.881 18.715 26.821 19.457 28.755s-21.311 12.787-49.007 24.118l-50.357 20.6zm108.817-46.62c-51.089-69.93-83.476-159.576-80.091-221.693l1.094-20.078 20.365 20.226c16.311 16.2 48.234 62.227 48.234 69.544 0 .879-4.517 3.173-10.039 5.098-9.082 3.166-10.039 4.889-10.039 18.075 0 15.593 14.14 48.568 22.144 51.64 2.499.959 9.323.077 15.166-1.96s11.129-3.198 11.746-2.581 4.198 13.047 7.957 27.622c11.012 42.7 9.266 81.713-3.657 81.713-1.491 0-11.787-12.423-22.88-27.607zm-15.118-100.21c-4.766-9.564-8.665-22.2-8.665-28.081 0-8.743 1.597-11.093 8.761-12.891 4.818-1.209 9.235-1.724 9.816-1.144s5.581 12.32 11.113 26.089l10.058 25.033-7.325 4.073c-11.959 6.649-14.67 5.157-23.757-13.079zm431.932 446.832c-5.054-5.054-1.536-177.379 5.727-280.532 8.422-119.613 7.361-138.802-9.514-172.104-22.447-44.298-77.847-77.912-128.95-78.243-22.358-.145-86.705 21.026-185.495 61.029l-71.306 27.852c-2.932.537-8.363-8.598-14.949-25.147-5.689-14.295-9.741-26.52-9.005-27.168 4.113-3.622 225.676-82.826 240.717-86.051 24.808-5.32 70.47-2.057 96.831 6.919 28.414 9.676 62.378 32.777 87.199 59.312 48.969 52.348 53.845 87.397 38.31 275.386-6.849 82.88-11.047 115.181-22.294 171.542-11.399 57.121-14.848 69.436-19.448 69.436-3.076 0-6.596-1.004-7.823-2.231z"/><path d="M3248.077 1975.392c-4.887-4.887-1.956-166.771 4.77-263.505 8.899-127.983 7.871-154.641-7.142-185.137-20.233-41.099-58.442-68.992-108.85-79.461-22.662-4.707-24.924-4.576-53.64 3.109-32.858 8.793-91.04 30.024-173.673 63.372-29.448 11.884-54.465 20.598-55.594 19.364-3.375-3.688-20.885-50.701-19.398-52.082 3.913-3.634 224.904-82.638 240.486-85.974 25.111-5.376 70.607-2.15 97.191 6.893 28.918 9.836 61.574 31.995 86.637 58.788 49.475 52.889 54.371 87.723 38.82 276.228-6.835 82.855-10.978 114.666-22.294 171.2-11.43 57.105-14.892 69.436-19.491 69.436-3.076 0-6.596-1.004-7.823-2.231z"/></g><path d="M2195.178 1579.156l123.813 294.475 224.203-87.004-123.813-287.782z" fill="none" stroke="#000" stroke-width="7.559"/><g transform="rotate(65.2)"><path d="M2451.775-1463.866q-2.469-.094-4.969-5.812-1.656-3.687-2.844-8.5-2.312.344-7.562.688-4.937.344-7.562.813-1.437 3.438-5 10.344-1.375 2.25-3.812 2.25-1.719 0-3.094-1.156-1.375-1.187-1.375-3 0-1.594 4.563-10.812-.437-.969-.375-1.812.125-1.5 3.031-2.344 4.438-7.687 9.875-15.937 7.813-11.844 9.625-11.844 3.438 0 4.594 4.156.625 3.344 1.969 10.031 1.906 9 4.656 20.594.219.875 1.594 4.125 1.125 2.688 1.125 4.031 0 1.813-1.375 3.031-1.344 1.219-3.062 1.156zm-11.656-32.062q-2.437 4.188-6.719 11.406 1.406-.312 4.375-.5 3.5-.219 4.406-.344-.75-4.062-2.062-10.562z"/><use xlink:href="#B"/><use xlink:href="#C"/><path d="M2521.619-1492.46q4.719-5.469 8.938-5.469 4.813 0 7.063 3.656 1.906-1.687 4.219-2.531 2.313-.844 5-.844 6.125 0 8.313 6.094.438 1.25 1.344 8.469.875 5.063 2.25 16.875.125 1.781-1.219 2.938-1.344 1.156-3.156 1.156-3.594 0-4.219-3.562-.562-3.219-1.156-9.094-.625-6.437-1.031-9.125-.844-5.594-2.156-5.594-.719 0-3.281 1.438-2.562 1.438-3.75 2.469 0 3.563.844 10.25.875 6.844.875 10.25 0 1.781-1.219 2.969-1.219 1.188-3.094 1.188-1.875 0-3.094-1.187-1.219-1.187-1.219-2.969 0-3.562-.781-10.469-.75-6.937-.75-10.5 0-2-.344-3.187-3.625 2.094-7.281 6.969-.156.219-.531.656-.125 6.313-.125 9.906 0 .875-.062 2.375-.062 1.469-.062 2.188 0 1.688-1.375 2.656-1.25.906-3.094.906-2.656 0-3.594-2.312-.656-1.562-.656-4.969v-11.625q0-1.562-.125-4.562-.125-3.031-.125-4.594 0-2.781 1-5.031 1.219-2.812 3.438-2.812 1.75 0 3.125 1.375 1.375 1.344 1.375 2.969 0-.656-.281 2.688z"/><use xlink:href="#D"/><use xlink:href="#E"/><path d="M2641.744-1462.741q-1.437 0-4.562-3.125-2.875 1.375-5.062 2.063-2.187.719-3.719.719-7.531 0-11.312-4.031-3.75-4.031-3.75-12.062 0-7.531 5.563-12.875 5.563-5.375 13.313-5.375 2.969 0 6.875 1.688 4.719 2.031 4.719 4.719 0 1.125-.719 1.969-.312 1.25-.5 3.156-.156 1.875-.156 4.406 0 5.969.844 8.594.094.281 1.438 3.25 1.219 2.688 1.219 3.063 0 1.656-1.281 2.75-1.25 1.094-2.906 1.094zm-7.75-21.437q0-1 .125-2.281.156-1.312.438-2.906-.625-.312-1.125-.437-.469-.156-.812-.156-4.25 0-7.437 3.344-3.187 3.313-3.187 7.688 0 4.188 1.5 6.313 1.5 2.094 4.5 2.094 1.938 0 3.656-.625 1.75-.656 3.281-1.906-.937-7.437-.937-11.125zm-203.438 101.28q-7.937 0-12.5-3.531-3.844-2.937-3.844-6.781 0-1.969 1.188-3.25 1.188-1.312 3.281-1.312 2.813 0 4.125 2.875 1.781 3.844 8.063 3.844 5.375 0 10.406-2.344 5.219-2.406 5.219-5.281 0-3.937-3.25-5.187-2.312-.906-9.281-1.062-5.406-.125-9.687-2.031-5.781-2.594-5.687-7.437.094-6.094 6.5-11.156 6.406-5.094 14.125-5.094 3.063 0 7.563 1.406 5.594 1.75 5.594 4.031 0 1.625-1.125 2.875-1.25 1.406-3.219 1.406-1.469 0-4.406-.625-2.906-.625-4.406-.625-4.031.031-7.656 1.938-3.75 1.938-3.75 4.219 0 1.188 1.125 1.969 1.156.75 3.438 1.063 4 .219 7.969.438 6.938.531 10.969 3.906 4.438 3.75 4.438 10.375 0 8.063-9.187 12.219-7 3.156-16 3.156z"/><use xlink:href="#F"/><use xlink:href="#B" x="31.125" y="80"/><use xlink:href="#C" x="31.125" y="80"/><path d="M2566.713-1409.96q-.656 0-1.562-.031-.875-.062-1.531-.062-1.281 0-2.969.25.563 12.625.563 16.5 0 .406.031 1.531.031 1.094.031 1.781 0 7.188-4.531 7.188-1.719 0-2.969-1.062-1.375-1.125-1.375-2.812 0-1.125.094-3.375.094-2.25.094-3.375 0-3.781-.562-16.187-1.937-.094-5.875-.5-3.906-.437-3.906-4.062 0-1.75 1.188-2.969 1.188-1.219 3.063-1.219 1.156 0 5.313.375-.031-1-.156-3.312-.125-2-.125-3.094 0-1.75 1.281-2.906 1.281-1.156 3.094-1.156 4.625 0 4.625 7.781l-.062 2.563q1.938-.281 3.156-.281 3.594 0 4.906.469 2.5.875 2.5 3.813 0 1.781-1.219 2.969-1.219 1.188-3.094 1.188z"/><use xlink:href="#D" x="11.5" y="80"/><use xlink:href="#F" x="132.5"/><use xlink:href="#E" x="45.125" y="80"/></g><defs ><path id="B" d="M2472.4-1469.398q0 5.938-4.312 5.938-1.875 0-3.094-1.187-1.219-1.187-1.219-3.062v-43.219q0-1.812 1.313-2.969 1.25-1.062 3.094-1.062 1.844 0 3.031 1.125 1.188 1.094 1.188 2.906z"/><path id="C" d="M2507.65-1482.866q0 2.094.031 6.313.031 4.219.031 6.313 0 .656.094 1.969.125 1.281.125 1.938 0 1.75-1.281 2.875-1.25 1.156-3.094 1.156-2.594 0-3.781-2.344-4 1.469-8.281 1.469-4.437 0-7.469-1.875-3.406-2.156-4.062-6.281-1.219-7.812-1.219-13.969 0-4.062.938-9.281.625-3.531 4.219-3.531 1.813 0 3.094 1.156 1.281 1.125 1.281 2.875 0 1.375-.469 4.313-.437 2.938-.437 4.469 0 4.406.281 7.719.313 3.281.906 5.438.781.344 1.5.531.75.188 1.438.188 3.469 0 7.625-1 0-2.406-.031-5.469-.062-3.656-.062-5.25 0-6.406.594-11.062.469-3.719 4.25-3.719 1.844 0 3.156 1.156 1.313 1.156 1.219 2.906-.594 11.906-.594 11z"/><path id="D" d="M2570.4-1502.366q-2 0-3.469-1.344-1.469-1.344-1.469-3.281 0-1.937 1.469-3.281 1.469-1.344 3.469-1.344 2 0 3.438 1.344 1.469 1.344 1.469 3.281 0 1.938-1.469 3.281-1.437 1.344-3.437 1.344zm2.656 22.906q0 1.781.094 5.719.125 3.938.125 5.719 0 1.813-1.219 3-1.219 1.156-3.094 1.156-1.875 0-3.094-1.156-1.219-1.187-1.219-3 0-1.781-.125-5.719-.094-3.937-.094-5.719 0-2.781.313-6.969.313-4.187.313-6.969 0-1.812 1.219-2.969 1.219-1.187 3.094-1.187 1.875 0 3.094 1.188 1.219 1.156 1.219 2.969 0 2.781-.312 6.969-.312 4.188-.312 6.969z"/><path id="E" d="M2605.9-1462.585q-3.844 0-4.281-3.781-.437-3.219-.875-6.469-.469-3.437-.469-6.469 0-.812.094-2.781.125-1.969.125-2.781 0-.219.062-1.094.062-.906.062-1.469 0-2.594-1.344-2.594-2.875 0-5.656 3.375-2.75 3.344-4.312 8.5-.062 1.031-.281 2.75-.187 1.406-.187 2.75 0 .875.188 2.656.219 1.75.219 2.625 0 1.781-1.25 2.938-1.219 1.188-3.094 1.188-1.875 0-3.094-1.187-1.219-1.156-1.219-2.937 0-.875-.187-2.625-.187-1.781-.187-2.656 0-3 .438-8.344.438-5.344.438-8.344 0-.937-.125-2.781-.094-1.875-.094-2.781 0-1.75 1.25-2.875 1.281-1.156 3.125-1.156 4.094 0 4.375 4.906l.031.344q4.563-4.594 9.625-4.594 5.906 0 8.156 4.938 1.5 3.313 1.5 9.906v2.219q-.031 1.438-.031 2.031 0 2.438.656 6.281.688 3.844.688 6.25 0 1.75-1.25 2.906-1.25 1.156-3.094 1.156z"/><path id="F" d="M2473.15-1382.96q-5.781 0-9.937-3.969-4.562-4.344-4.781-11.594-.219-6.906 3.781-12.312 4.75-6.375 13.219-6.375 6.25 0 9.938 5 3.313 4.5 3.313 11.156 0 7.25-3.875 12.375-4.344 5.719-11.656 5.719zm1.875-26q-3.844-.031-6.062 3.5-1.875 2.969-1.875 6.938 0 3.75 2.125 5.75 1.688 1.594 3.938 1.594 2.719 0 4.719-1.844 2.281-2.156 2.438-5.844.406-10.062-5.281-10.094z"/></defs></svg>