<svg xmlns="http://www.w3.org/2000/svg" width="5376" height="4032"  xmlns:v="https://vecta.io/nano"><style><![CDATA[.B{stroke-width:7.559}.C{font-family:sans-serif}.D{word-spacing:0px}]]></style><g fill="none" class="B"><g stroke="#000"><path d="M3371.406 510.011l-1835.45-10.039 113.774-113.774c13.943-9.9 27.886-25.24 41.829-18.405l1544.026-2.694c22.429 4.33 51.606 4.161 61.894 16.585l71.986 124.683v832.901l-1866.93 9.465 16.563-821.07c-.483-12.92 5.911-22.088 17.693-28.318m-32.627 848.917l15.058 204.125 610.701 8.366c187.554-21.598 371.224-28.953 545.448-1.673l694.359-16.732v-209.144h0M1512 1464.676L802.141 2929.352c-22.659 26.421-19.823 76.214-4.732 137.239l158.535 567.887c3.271 18.57 2.728 38.353 73.352 35.493l2806.31-42.591c20.242 1.532 78.794 7.239 101.763 1.247 27.122-7.075 17.226-27.194 17.73-42.656l-9.465-596.282c-8.028-17.007-13.212 7.558-30.327-21.393-4.527-7.657-11.53-18.992-15.814-29.48l-529.761-1398.98"/><path d="M789.127 2953.014l3117.465-2.366h0l-2.366-1.183m33.127 74.535l-3129.296 8.282c-15.719-2.421-20.379-15.902-23.662-30.761"/></g><ellipse cx="2426.074" cy="2099.507" rx="689.372" ry="353.068" stroke="#010"/><g stroke="#000"><ellipse cx="2429.42" cy="2040.947" rx="769.254" ry="414.546"/><ellipse cx="2416.034" cy="2179.818" rx="1110.95" ry="640.794"/></g><path d="M3528.682 2171.453l1.673 184.047c2.974 50.56-49.158 163.124-128.833 229.222-108.374 97.769-230.373 172.913-376.46 214.164-176.847 57.713-348.033 94.765-543.775 93.697-202.795-10.094-433.755-17.621-610.701-93.697-151.383-34.35-309.994-136.294-413.269-239.261-89.738-91.449-102.662-159.263-138.872-234.242-7.264-43.558-8.553-63.212-11.712-90.35" stroke="#000500"/><g stroke="#000"><path d="M3123.779 1258.747c28.556 2.416 39.583-10.944 46.012-28.444l7.529-509.475c6.198-35.502-20.421-26.252-36.809-30.953l-1280.799 1.673c-24.504 3.225-20.542 20.682-24.261 34.3l30.953 527.044c1.661 10.341 8.423 10.483 16.732 7.529z"/><path d="M2246.02 807.685h454.31v168h-454.31z"/></g><path d="M2304.447 1082.164h81.634v57.972h-81.634z" stroke="#000100"/><path d="M2567.08 1082.031h88.593v61.382h-88.593z" stroke="#003500"/></g><text xml:space="preserve" x="2354.264" y="905.49" transform="scale(.9804207 1.0199703)" font-size="86.472" letter-spacing="0" fill="#000" class="C D"><tspan x="2354.264" y="905.49">ON/OFF</tspan></text><text xml:space="preserve" x="2315.585" y="1125.939" font-size="40" letter-spacing="0" fill="#000" class="C D"><tspan x="2315.585" y="1125.939">ON</tspan></text><text y="1126.154" x="2569.998" xml:space="preserve" font-size="40" letter-spacing="0" fill="#000" class="C D"><tspan y="1126.154" x="2569.998">OFF</tspan></text></svg>