<svg xmlns="http://www.w3.org/2000/svg" width="793.701" height="1122.52" viewBox="0 0 210 297"  xmlns:v="https://vecta.io/nano"><path d="M99.58 88.448c.598 16.831-17.98 34.274-5.064 45.567 0 0 20.472 7.106 17.387-12.851-3.238-20.942-6.535-18.107-12.059-32.68-.078.043-.18.036-.264-.036z" fill="none" stroke="#000"/><path d="M99.303 134.454c-4.059-.739-4.5-.91-5.642-2.193-.613-.689-1.465-1.994-1.893-2.9-2.182-4.614-1.506-9.049 3.129-20.537 3.259-8.077 4.647-12.508 5.09-16.251l.184-1.551.986 2.219c.542 1.22 2.024 4.083 3.294 6.362 3.606 6.473 4.952 10.557 6.505 19.745.789 4.665.772 7.661-.058 10.053-.617 1.779-2.72 3.887-4.513 4.525-1.305.464-5.651.788-7.08.527z" fill="#fff"/><path d="M97.298 134.093c-2.276-.49-2.469-.586-3.583-1.802-2.245-2.447-3.458-6.2-3.094-9.569.392-3.629 1.315-6.548 5.032-15.918 2.565-6.465 3.474-9.361 4.12-13.12l.443-2.578.919 2.043c.506 1.124 1.977 3.968 3.27 6.32 3.676 6.688 4.999 10.705 6.548 19.879.791 4.688.777 7.714-.048 10.053-.628 1.779-2.736 3.89-4.522 4.527-2.035.726-6.132.8-9.085.165z" fill="#b3b3b3"/></svg>