<svg xmlns="http://www.w3.org/2000/svg" width="5376" height="4032"  xmlns:v="https://vecta.io/nano"><path d="M1300.953 2724.191c67.533-2.334 140.328-8.485 223.758-9.535l236.807 1.741 215.738 6.542 286.13 3.655 241.179-4.404 344.866-1.259 324.798-1.868 284.458 3.604 237.479 7.202 90.461-2.278 11.656 2.027-170.117-462.14-1.166-2.965-21.855 3.104-89.523-1.041-215.523.16-180.795.376-291.249-.463-210.974 1.972-177.058 1.327-215.142 1.427-58.153-.508-35.614 1.431-57.393 2.026-112.987-.079-95.719-3.74-84.354-5.906-103.422 1.885-105.17 4.343-104.816 6.447-42.965 105.828-45.385 116.635-82.978 224.719z" opacity=".301" stroke="#ff0" stroke-width="5"/></svg>