<svg xmlns="http://www.w3.org/2000/svg" width="225.078" height="656.024" viewBox="0 0 59.552 173.573"  xmlns:v="https://vecta.io/nano"><g fill="none"><path d="M8.243 35.71c.186-1.434-.207-4.217.756-7.276 2.936-.7 4.83-.358 6.52.189 1.814 1.082 3.474 2.202 3.307 3.78 2.458.111 5.601-.488 6.237 1.512.988 2.79 2.468 6.003 1.795 7.371l3.496-.189.283-2.362 5.67-3.118c.979-1.056 2.011-2.025 3.733-1.843 2.008.372 3.252 1.235 3.496 2.74.329.949.567 2.08.52 3.78-.363 2.501-2.281 4.846-3.827 7.229-1.332 1.271-2.799 1.058-4.252.992-1.333-.379-1.45-.867-1.417-1.37l.047-.047m2.173-10.064c-.523-.429.885-2.292 2.457-1.795 1.217.242 2.684-.013 3.071 1.89.793 1.767.939 3.146.472 4.158-.689 1.476-1.405 2.947-2.835 4.299h.095m-3.213-.803c.534-.392 1 .039 1.984-.803l1.276-1.276c.181-1.136.561-2.215-.095-3.591-.451-.459-1.061-.706-1.89-.661-.582.044-1.054-.351-1.512-.803m-.236 2.551c-.487.443-.656 1.089-.803 1.748.274.392.659.763.331 1.276a1.07 1.07 0 0 1-.614.378c-.243.311-.244.666-.142 1.039l.142.047m8.882-5.386c2.196 1.89 5.205 3.78 6.709 5.67 2.195-.529 4.399-1.124 7.087-5.103l-.85-3.118-1.512-1.417-.661-1.606c.132-1.054.212-2.12 1.323-2.929l.378-2.646c-.293-3.496.105-6.993-1.323-10.489-.524-1.297-1.535-2.351-2.551-3.402-1.1-1.545-2.436-4.282-3.84-5.443-1.253-1.036-3.545-1.422-4.612-2.148-2.563-1.744-3.398-3.288-4.322-4.954C38.75-.498 37.467.417 35.647.558c-8.865 2.164-17.52 4.559-23.907 9.449-4.434 1.962-7.321 5.69-10.016 9.638l1.701 6.804 5.481 2.173m1.217 21.349c.741-.149 1.598-.209 2.339-.752.403-.226.361-.871.468-1.32m-4.52 1.416c.988-.533 1.917-.257 2.717.354m18.899 9.662l3.874-1.937c.792-.63 2.138-1.046 2.221-2.504.416-1.868.572-1.585.614-3.827m19.025-8.409c-3.936 7.612-6.064 15.826-8.152 24.054l-4.811-2.138c-1.159-.306-2.411-.396-3.274-1.537l-6.615-2.74c-3.089-1.657-5.835-1.015-8.486.267-2.397 1.866-4.602 2.576-6.749 2.94-2.858-.127-5.07-.899-5.546-3.408l.134-2.138c-.123-.428-.456-.752-.935-1.002-.348.195-.767-.112-1.203-.535-.557-.702-.288-1.403-.167-2.105l.401-.367c-.442-.36-1.129-.475-1.169-1.236-.314-.474-.245-.906-.167-1.336.807-.193.999-.771 1.102-1.403-1.02.074-1.908-.265-2.572-1.303-.093-.896-.76-1.171.036-2.13 1.69-1.504 2.077-2.724 5.107-4.228 1.884-.32 2.535-1.503 2.994-2.179-.929-.962-1.609-1.367-3.426-1.085-6.393.355-3.331-3.818-4.017-3.338 6.299-.143 7.21.728 9.638 2.268-4.869-1.048-7.793-1.188-8.882-.472l-.756-1.795m2.113 18.238c1.839.389 3.358.033 4.824-.45" stroke="#060000" stroke-width=".503"/><path d="M11.302 43.151l-.579.26c-.447-.944-1.069-2.847-.472-4.418l.721.071" stroke-width=".37" stroke="#000"/></g><path d="M10.176 39.974c1.162.742.893 1.541.339 2.268h0c-.24-.245-.619-1.329-.339-2.268z" stroke="#000" stroke-width=".265"/></svg>