<?xml version="1.0" encoding="UTF-8" standalone="no"?>
<!-- Created with Inkscape (http://www.inkscape.org/) -->

<svg
   xmlns:dc="http://purl.org/dc/elements/1.1/"
   xmlns:cc="http://creativecommons.org/ns#"
   xmlns:rdf="http://www.w3.org/1999/02/22-rdf-syntax-ns#"
   xmlns:svg="http://www.w3.org/2000/svg"
   xmlns="http://www.w3.org/2000/svg"
   xmlns:sodipodi="http://sodipodi.sourceforge.net/DTD/sodipodi-0.dtd"
   xmlns:inkscape="http://www.inkscape.org/namespaces/inkscape"
   version="1.1"
   id="svg826"
   width="3179.5562"
   height="3312.7183"
   viewBox="0 0 3179.5562 3312.7183"
   sodipodi:docname="velvet.svg"
   inkscape:version="0.92.4 (5da689c313, 2019-01-14)">
  <metadata
     id="metadata832">
    <rdf:RDF>
      <cc:Work
         rdf:about="">
        <dc:format>image/svg+xml</dc:format>
        <dc:type
           rdf:resource="http://purl.org/dc/dcmitype/StillImage" />
        <dc:title />
      </cc:Work>
    </rdf:RDF>
  </metadata>
  <defs
     id="defs830" />
  <sodipodi:namedview
     pagecolor="#ffffff"
     bordercolor="#666666"
     borderopacity="1"
     objecttolerance="10"
     gridtolerance="10"
     guidetolerance="10"
     inkscape:pageopacity="0"
     inkscape:pageshadow="2"
     inkscape:window-width="1366"
     inkscape:window-height="705"
     id="namedview828"
     showgrid="false"
     inkscape:zoom="0.0747092"
     inkscape:cx="2472.2062"
     inkscape:cy="1163.9951"
     inkscape:window-x="-8"
     inkscape:window-y="-8"
     inkscape:window-maximized="1"
     inkscape:current-layer="svg826" />
  <path
     style="fill:none;stroke:#000000;stroke-width:13.459;stroke-linecap:butt;stroke-linejoin:miter;stroke-miterlimit:4;stroke-dasharray:none;stroke-opacity:1"
     d="M 2590.7017,148.69183 755.25156,138.6529 869.02606,24.878428 c 13.943,-9.89991 27.8859,-25.24025972 41.8289,-18.4046997 l 1544.02624,-2.69357 c 22.4292,4.32961 51.6056,4.16112 61.8942,16.5845197 l 71.9856,124.682672 v 832.90141 l -1866.92964,9.4648 16.5634,-821.07043 c -0.4834,-12.91989 5.9112,-22.08812 17.6934,-28.31766 m -32.6265,848.91659 15.0584,204.12484 610.70124,8.3657 c 187.5544,-21.5981 371.2243,-28.9531 545.4483,-1.6731 l 694.3589,-16.7316 v -209.14424 0 M 731.29616,1103.3573 21.43701,2568.0333 c -22.6593104,26.4214 -19.8231104,76.2138 -4.7324,137.2394 l 158.53521,567.8874 c 3.27058,18.5701 2.72809,38.3534 73.35214,35.4929 l 2806.30984,-42.5915 c 20.2421,1.5324 78.7939,7.2387 101.7632,1.2471 27.1215,-7.0747 17.2259,-27.1939 17.7298,-42.6556 l -9.4648,-596.2817 c -8.0276,-17.0071 -13.2117,7.5577 -30.3273,-21.3931 -4.527,-7.6574 -11.5303,-18.9922 -15.8135,-29.4801 L 2589.0285,1178.5182"
     id="path1379"
     inkscape:connector-curvature="0"
     sodipodi:nodetypes="ccccccccccccccccccccccccsccscc" />
  <path
     style="fill:none;stroke:#000000;stroke-width:13.459;stroke-linecap:butt;stroke-linejoin:miter;stroke-miterlimit:4;stroke-dasharray:none;stroke-opacity:1"
     d="M 8.4229196,2591.6953 3125.8878,2589.3291 v 0 l -2.3662,-1.1831 m 33.1267,74.5352 -3129.2958,8.2817 C 11.63311,2668.5414 6.9732196,2655.0605 3.6905296,2640.2023"
     id="path1383"
     inkscape:connector-curvature="0"
     sodipodi:nodetypes="ccccccc" />
  <ellipse
     style="fill:none;fill-opacity:1;stroke:#001100;stroke-width:13.459;stroke-miterlimit:4;stroke-dasharray:none;stroke-opacity:1"
     id="path1385"
     cx="1645.3699"
     cy="1738.1882"
     rx="689.37164"
     ry="353.06766" />
  <ellipse
     style="fill:none;fill-opacity:1;stroke:#000000;stroke-width:13.459;stroke-miterlimit:4;stroke-dasharray:none;stroke-opacity:1"
     id="path1395"
     cx="1648.7161"
     cy="1679.6278"
     rx="769.25415"
     ry="414.5455" />
  <ellipse
     style="fill:none;fill-opacity:1;stroke:#000000;stroke-width:13.459;stroke-miterlimit:4;stroke-dasharray:none;stroke-opacity:1"
     id="path1402"
     cx="1635.3306"
     cy="1818.4995"
     rx="1110.95"
     ry="640.79382" />
  <path
     style="fill:none;stroke:#000500;stroke-width:13.459;stroke-linecap:butt;stroke-linejoin:miter;stroke-miterlimit:4;stroke-dasharray:none;stroke-opacity:1"
     d="m 2747.9781,1810.1339 1.6732,184.0469 c 2.9739,50.5599 -49.1576,163.1241 -128.8329,229.2221 -108.374,97.769 -230.3726,172.9129 -376.4596,214.1637 -176.8471,57.7127 -348.0325,94.7654 -543.7751,93.6967 -202.7949,-10.0936 -433.7553,-17.6213 -610.7012,-93.6967 -151.38304,-34.3502 -309.99364,-136.2937 -413.26914,-239.261 -89.7379,-91.4489 -102.6617,-159.2628 -138.8718,-234.2416 -7.2644,-43.5584 -8.5527,-63.212 -11.7121,-90.3503"
     id="path1406"
     inkscape:connector-curvature="0"
     sodipodi:nodetypes="ccccccccc" />
  <path
     style="fill:none;stroke:#000000;stroke-width:13.459;stroke-linecap:butt;stroke-linejoin:miter;stroke-miterlimit:4;stroke-dasharray:none;stroke-opacity:1"
     d="m 2343.0749,897.42826 c 28.556,2.4157 39.5833,-10.9444 46.0117,-28.4436 l 7.5292,-509.47542 c 6.1984,-35.50174 -20.4206,-26.25236 -36.8094,-30.95335 l -1280.7994,1.67315 c -24.5043,3.22452 -20.5422,20.68227 -24.2608,34.29966 l 30.9534,527.04356 c 1.6615,10.3411 8.4227,10.4828 16.7315,7.5292 z"
     id="path1408"
     inkscape:connector-curvature="0"
     sodipodi:nodetypes="ccccccccc" />
  <rect
     style="fill:none;fill-opacity:1;stroke:#000000;stroke-width:13.459;stroke-miterlimit:4;stroke-dasharray:none;stroke-opacity:1"
     id="rect1410"
     width="454.30984"
     height="168"
     x="1465.3159"
     y="446.36627" />
  <rect
     style="fill:none;fill-opacity:1;stroke:#000100;stroke-width:13.459;stroke-miterlimit:4;stroke-dasharray:none;stroke-opacity:1"
     id="rect1412"
     width="81.633804"
     height="57.971832"
     x="1523.7427"
     y="720.84521" />
  <rect
     style="fill:none;fill-opacity:1;stroke:#003500;stroke-width:13.459;stroke-miterlimit:4;stroke-dasharray:none;stroke-opacity:1"
     id="rect1414"
     width="88.592789"
     height="61.381523"
     x="1786.3765"
     y="720.71204" />
  <text
     xml:space="preserve"
     style="font-style:normal;font-weight:normal;font-size:86.47229767px;line-height:1.25;font-family:sans-serif;letter-spacing:0px;word-spacing:0px;fill:#000000;fill-opacity:1;stroke:none;stroke-width:13.45900003;stroke-miterlimit:4;stroke-dasharray:none"
     x="1557.9692"
     y="551.24554"
     id="text1418"
     transform="scale(0.9804207,1.0199703)"><tspan
       sodipodi:role="line"
       id="tspan1416"
       x="1557.9692"
       y="551.24554"
       style="stroke-width:13.45900003;stroke-miterlimit:4;stroke-dasharray:none">ON/OFF</tspan></text>
  <text
     xml:space="preserve"
     style="font-style:normal;font-weight:normal;font-size:40px;line-height:1.25;font-family:sans-serif;letter-spacing:0px;word-spacing:0px;fill:#000000;fill-opacity:1;stroke:none;stroke-width:13.459;stroke-miterlimit:4;stroke-dasharray:none"
     x="1534.8809"
     y="764.61987"
     id="text1422"><tspan
       sodipodi:role="line"
       id="tspan1420"
       x="1534.8809"
       y="764.61987">ON</tspan></text>
  <flowRoot
     xml:space="preserve"
     id="flowRoot1424"
     style="font-style:normal;font-weight:normal;font-size:40px;line-height:1.25;font-family:sans-serif;letter-spacing:0px;word-spacing:0px;fill:#000000;fill-opacity:1;stroke:none"
     transform="translate(-780.70384,-361.31884)"><flowRegion
       id="flowRegion1426"><rect
         id="rect1428"
         width="53.239361"
         height="46.140862"
         x="2874.9297"
         y="1152.338" /></flowRegion><flowPara
       id="flowPara1430" /></flowRoot>  <text
     id="text1466"
     y="764.83521"
     x="1789.2942"
     style="font-style:normal;font-weight:normal;font-size:40px;line-height:1.25;font-family:sans-serif;letter-spacing:0px;word-spacing:0px;fill:#000000;fill-opacity:1;stroke:none;stroke-width:13.459;stroke-miterlimit:4;stroke-dasharray:none"
     xml:space="preserve"><tspan
       y="764.83521"
       x="1789.2942"
       id="tspan1464"
       sodipodi:role="line">OFF</tspan></text>
</svg>
