<svg xmlns="http://www.w3.org/2000/svg" width="793.701" height="1122.52" viewBox="0 0 210 297"  xmlns:v="https://vecta.io/nano"><style><![CDATA[.B{stroke-width:11.704}]]></style><g transform="matrix(.032532 0 0 .032511 26.79274 73.244404)" fill="none" class="B"><g stroke="#000"><path d="M3295.746 1082.284l-78.004 25.856.665 17.287-6.316 1.662.332 6.649-4.987.665h-2.66l-5.319-5.984-150.598 50.532-16.29-47.207-331.092 104.749 2.821 13.869-23.742 6.582 4.466 36.201 14.575 49.131-19.276 5.407-11.284-12.929-1.41-37.847 6.817-12.224h-5.877v-5.172l5.407-2.821-.47-4.937 1.646-1.881-.94-2.821-.705-2.586-.235-2.821.705-2.351-.235-2.351-.705-3.526v-2.351h0l-2.586-4.466.47-17.16-28.209-2.821.705-71.698-3.526-3.056-20.452.235v-35.731l-156.795-2.586.47 35.026h-24.683v74.989l-29.854 1.646.705 18.101-3.761 2.586.705 25.858 3.761 2.586-.557 3.713-2.688.76.424 14.333 260.228 3.291m-260.817-46.245l265.957.665m-262.965-7.646l260.97 3.657m-260.305 27.925l257.978 4.654m-261.967-10.638l266.954 3.989m-266.954-9.641l267.619 3.657m-268.284-9.641l267.619 2.327m612.033-175.864c-1.997-3.878-4.597-7.514-10.971-9.641l-73.47 23.936c-2.305 3.62-2.995 8.585 0 16.622-4.468.025-5.682 1.135-7.646 1.995-1.078 2.007-3.133 3.623 0 7.314l-5.984-.665c-.531-3.015-1.689-5.404-3.989-6.649l-139.96 44.215m-603.057-9.309c69.494 8.295 136.147 7.19 202.127 1.33m-173.055-42.057l.47-63.94-15.045-2.821-.47-167.843c-1.765-1.324 2.45-7.918 4.231-5.172.415.639 5.454-1.367 8.196-.375 4.394 1.59 2.399 4.915 2.399 4.915.134 4.324-.065 13.653.069 22.64l136.968-.665 21.277 9.973-1.995 143.617-22.606-4.987 1.995-149.268m-134.973 150.598l133.311-.665-.997-.332m-60.173-150.265l-.332-18.285c16.699-2.539 29.129-1.52 40.558.332l.665 17.952h-.332m-106.05.665v-53.191c1.298-8.143-3.941-7.882-8.644-8.311h-25.931l-.665-46.542h68.816c5.515 3.353 11.236 6.272 13.298 11.303 3.965 4.287 4.456 9.565 3.989 15.625l-.332 81.782h0 0m87.11 216.552v-66.291m-176.306 175.366c72.053 5.753 137.581 3.349 204.985 3.291l-.47-.47"/><path d="M2407.164 1293.381l5.642 7.522-6.582 138.694-8.933 4.231-272.63 91.837-9.641 10.638-15.803 5.189-61.59 174.896 3.291 4.701 753.649 22.567 30.09-63.94.94-66.761-25.388-63 328.164-98.731-.94-5.642 10.343-7.522-20.686-62.06 3.761-1.881-12.224-33.851 151.388-45.134.94-13.164 5.642 1.881 4.702 5.642 5.642-2.821 5.642 13.164 3.761.94 3.761-4.701 62.06-19.746 36.787-12.963c-19.412-72.161-28.057-135.047-73.138-197.473l-20.067 6.391h0m-78.004 25.856c40.735 96.191 50.623 138.992 70.146 198.47m-27.593-15.625l-25.921-78.869-29.597-77.714h0m177.194 111.702l26.596-7.646c-5.356-50.095-14.65-100.402-51.861-155.585l-30.253 8.976.997-.332m-308.842 42.886l57.79 177.105 52.582 148.692v-3.989m-329.786 105.053l-99.596-218.987h0m95.607 410.476v-70.478l-99.734-256.648-15.149-77.943-563.307 197.623m581.115-115.691l-614.36 162.234 1.33-1.33m708.774 93.085l30.585-62.5m284.168-269.895c-26.645-65.823-42.833-118.574-59.767-172.258h0m-1016.952 549.865l-995.342-15.293c6.171-2.844 11.151-6.724 21.276-7.979l150.265-43.883c3.546-1.399 7.092-.988 10.638-.665l216.09-10.638 624.998 12.633m-632.977-11.303l-198.138 63.165-76.463 261.302 3.989 75.133-123.67-49.202c-27.161-18.256-31.212-32.311-39.893-47.207-5.058-16.054-10.232-32.085-6.649-49.867l51.862-192.154m1789.582-27.844h13.164l-24.448 77.104h-39.492l4.702-10.343-1.881 2.821m37.612 5.642l-121.298 364.836c-115.048-1.101-227.211-9.895-334.746-31.03l-516.224-6.582c-7.775 1.942-12.274 7.159-15.045 14.104m629.06-224.731c152.372 25.669 302.287 35.374 447.582 15.045l-2.821-14.104c24.492-4.154 51.997-5.67 63-21.627 6.183-9.71-1.31-17.74-7.361-25.607-10.074-8.105-20.448-14.913-33.072-20.468-14.626-7.627-35.539-10.014-55.208-13.44l-45.545-4.987v-.332m-10.306-21.276c25.45 4.424 73.263 6.269 92.572 14.3 5.2 2.163 6.122 8.376 7.646 13.848l2.84 6.427.665.665m-219.414 314.494c90.709-4.341 175.438-12.395 248.669-55.186 20.72-44.769 33.186-89.539 45.213-134.308-.157-7.789-3.437-14.017-7.314-19.947-3.145-1.647-6.517-2.613-9.973-3.324l.665-22.606c-22.641 18.417-48.097 20.651-73.138 25.266l3.324-17.952m63.83-43.883l9.147 5.319c-1.99 2.026 3.439.265 4.007 6.258.48 5.063 1.763 16.615-6.505 26.322l.665.665-1.33-1.995m-68.846 4.894l8.463 3.761 6.817-6.347 9.403 2.586 5.877-6.817 11.049 2.116 1.41-6.582 9.873 2.351v-6.112l10.578 1.175-2.586-3.761 8.698.235s-4.466-5.407-3.056-5.642 7.992-.235 7.992-.235l-2.821-3.996 3.056-.47h-.235m-65.821 32.675l-.235 12.929v-.47m16.455-16.455l.94 13.869m16.69-17.866l.235 12.459m11.989-16.69l.235 11.519m11.754-15.75l-.235 7.993m5.877-11.989v3.761m-77.693 32.79l-12.134 50.532c2.524 10.273 6.475 12.486 14.96 15.957 33.423-12.944 73.132-18.618 87.932-46.875m-1841.005 44.681l264.224 102.493c12.545 8.251 18.479 18.706 15.985 31.97l-31.03 108.604c3.601 3.299 6.958 7.084 11.754 7.993l349.791 11.754c59.612-1.735 118.975-3.096 181.007-8.463 14.106-1.096 27.246-3.156 37.612-7.992l65.351-51.716c6.421-6.698 15.921-14.167 17.866-19.746l20.687-59.239m-929.955-39.963l258.112 93.09c3.87 1.145 4.017 6.013 5.642 9.403m229.903-265.164v-24.918c.427-3.523-.646-7.608 9.403-7.522l93.56 3.291c11.007-.852 10.263 3.518 10.343 7.522l3.956 127.448 2.626 84.589c-3.271 9.194-9.45 10.635-16.455 9.873l-40.433-2.821 18.336-12.224 7.522-4.231h12.694l-4.701-193.231-84.157-3.761 1.41 8.463-14.104 7.522zm59.239 196.993c-.618-2.369-4.598 1.988-7.522 4.231l-.94 6.112c-.439 3.793-4.441 4.022-9.873 2.821l-63-1.881c-3.891.6-6.277-.305-5.172-4.702l-7.993-175.836c-2.066-9.985 4.26-10.179 9.403-11.754l60.179 1.41c7.135-.041 13.271 1.489 11.754 15.045l6.582 168.784h0m-5.172-180.537l15.985-7.522-.47-7.052 31.97-17.866m-96.381 13.164l-11.284 5.172-2.351 7.522m4.231-6.582l73.343-.47m190.41-19.746c2.403-7.3 5.601-14.054 17.866-14.575l81.336 1.41c11.577 2.809 20.188 7.886 21.157 18.806l4.701 180.067c-.361 10.777-5.908 17.588-16.925 20.216l-85.097-.47c-8.982-3.739-15.777-10.211-19.746-20.216zm37.142 31.97l38.552.47-2.351.47m-43.724 13.634l7.052-3.761v-18.806c.766-3.936 2.098-7.305 6.582-7.522h30.56c7.879.339 9.731 5.061 10.813 10.343l3.291 157.97c-.868 4.896-3.218 8.099-8.463 7.992l-31.5-2.351c-5.097-.401-6.78-2.753-7.522-5.642-6.635 2.265-10.742 1.158-9.873-6.582-.312-8.626-1.589-100.988-1.953-126.927-.079-5.611 5.244-3.304 5.244-3.304l22.567 2.821 2.351 135.638 6.582-6.817c.942-4.7 7.704-4.411 12.694-5.642l-3.291-139.634-18.336 16.455h0m-14.575 133.052l15.985.47m-542.504 164.242c-33.976 128.947-61.442 259.847-70.478 396.275l-46.542 63.829 10.638 14.628 151.595 74.468c22.228 7.497 25.722 38.792 25.722 38.792-20.629 182.104-14.937 370.53 8.852 552.962 4.185 13.697-2.922 18.61-14.628 19.947l-160.904-25.266c-18.498-2.847-17.862-12.072-21.276-19.947-26.38-216.58-20.5-435.464 2.659-655.583m187.186 122.251l72.403-91.209h0m-217.209-97.791l196.522 66.761c34.227 22.066 25.059 34.832 26.328 49.836-7.442 174.447-17.532 348.747 18.806 525.627-34.802 45.198-70.261 87.987-97.791 159.851-27.704 57.608-15.18 106.596-9.403 157.03l54.537 103.433c3.408 16.878-14.452 42.219-38.552 48.896-21.287 12.64-40.427 8.101-59.239.94-56.063-35.297-106.584-76.932-140.104-129.761-18.99-40.109-36.638-80.754-31.03-130.702 5.325-30.982 6.053-58.682 45.134-113.776m1465.925-291.493c9.11 24.789.607 49.662-32.749 70.912-30.619 11.511-91.392 10.96-157.03 8.463l-411.072-151.778c-172.659-59.95-327.721-155.095-487.075-241.657l173.015 47.955c76.443 33.436 130.795 66.871 175.436 100.307 7.95 12.262 22.22 4.068 37.234-1.33 11.954-8.865 14.479-17.731 15.957-26.596l37.234-2.66v-61.17l15.957-17.287 1.33 53.191-14.628 27.925-2.66-2.66m252.659 0c-58.609 57.05-57.27 98.129-62.5 140.957 3.069 17.884 14.675 25.095 31.915 25.266l228.723 2.66c34.769-6.711 63.189-15.01 83.776-25.266 30.421-15.071 34.818-30.142 41.223-45.213 2.808-21.956-12.148-36.807-26.596-51.861-20.835-15.63-51.133-24.575-82.447-33.245zm-347.073 26.596l-1.33-131.649c-4.433-.23-8.865.997-13.298-5.984v-36.569c3.546 5.733 7.092 9.313 10.638 7.979l678.189.665-.665 29.255c-1.649 3.479 5.53 9.366-13.963 7.979l-661.567-3.989m114.361 66.489l25.931 1.995 10.638-5.319c2.587-6.057 5.723-11.564 6.649-19.282l8.644-6.649c-1.04-11.405-1.296-21.439 4.654-20.612l77.792.665c22.625-2.919 43.39-2.117 65.824-4.654v-10.638l.665-1.33m-327.792-43.218l15.957-18.617-4.654-134.973-21.941 1.995c-4.851-2.813-11.82-3.93-12.633-9.973 2.564-2.043 5.025-4.137 9.309-5.319l13.963 1.33 27.926-7.314 205.119-54.854 1.33-3.325c10.071-5.154 18.606-4.169 26.928-2.327 5.775 2.513 6.444 5.641 4.654 7.314-1.441 1.544-2.273 2.068-4.322 3.475-1.861 1.278-4.785 3.577-8.975 2.509-4.142-.013-11.625-.459-14.893-2.144-3.561-1.836-2.801-4.958-4.721-5.834l.665-.332m-221.741 75.465l189.162-49.867c12.444-5.173 23.722-11.426 39.229-12.3v11.968h19.282v-15.625l-19.947-1.662.332 6.649h0m-220.744-414.56v-1.33c-8.965 6.55-14.97 16.058-18.617 27.925l-40.558 107.048c-91.269 201.312-101.825 387.49-115.045 574.168h0m183.358-628.119c-19.915 58.899-45.794 118.882-39.493 173.015l-100.612 105.313 118.478 2.821c24.305-35.171 30.594-68.84 81.806-106.254l-98.731-3.761m16.925 109.075l2.821 101.552c25.511-42.064 47.033-87.121 81.806-122.239l-3.761-88.388m4.702 87.448l47.955 5.642c-37.587 24.213-52.483 60.37-66.761 96.851m69.112-97.321l-.47 21.157-14.104 15.985m-25.388 27.034v8.228c12.871 7.399 24.559 3.561 36.202-.705l.235-8.933m2.821-1.175c-13.364 7.927-27.461 7.422-42.078.94l-.705-20.687m41.138.47c-1.423-1.198.047-2.18 2.351 3.761v16.69m-16.455 43.019l-8.463 25.388-72.403 107.194c1.171 8.9 2.216 17.99 13.164 12.224l518.104-2.821 133.522 25.388h50.776c18.881-3.853 26.143-9.643 30.09-15.985 10.599-9.09 12.557-18.179 15.985-27.269l24.448-247.298c-51.797-46.431-71.314-39.644-110.955-48.896l-78.985-6.582v-6.582h-47.015m235.97 84.413c23.561 5.891 53.493 5.836 51.861 35.239l-13.963 203.457c-5.549 18.387-23.604 24.268-41.223 30.585-42.195 9.426-81.132 5.823-121.675 8.644l-.665 33.245c-1.787 3.768 3 7.535-6.649 11.303l-10.638 4.654 1.995-.665m179.521-84.441l-1.995 27.925c-19.004 31.973-51.71 28.32-81.117 33.245l-80.286-1.33m-129.003-59.05l109.555-8.769c18.401-1.592 94.097-21.885 97.739-37.234l31.915-214.095c.919-12.823-7.662-21.847-15.293-31.25m-610.37 132.978l38.564 23.936 142.287 1.33 292.552 8.644 51.862-17.287 18.617-137.633-45.878-12.633-104.388-3.324v1.33m-254.653-29.255h0m335.105 198.138l-.665 15.957 51.861-15.957.665-15.293m-52.967 31.343l-434.418-5.642-40.903-22.097.47-22.097m40.433 23.508l-.47 20.686m495.067-1128.358l355.433-110.955m-431.597 798.313l-31.97 82.746c-2.8 9.971-15.818 17.899-31.03 25.388-94.657 20.553-189.314-3.997-283.97-30.09-57.746-22.649-114.109-46.429-144.806-91.209v-21.627m47.015 1.881c88.46 32.496 178.441 62.862 279.269 78.045 53.854 5.785 107.357 10.519 151.388-13.164m-464.508-31.03c93.08 55.79 192.519 96.095 305.597 104.373 53.021 3.934 100.229.117 138.224-15.985m-158.91 146.686l-.94 41.373c43.254 22.25 86.508 21.944 129.761-.94v-41.373m-158.483 10.563l18.381.779 11.282-.058h0m7.522-89.328c54.337 8.225 103.26 6.395 140.104-17.866m-150.448 72.403c47.631 14.837 95.981 22.485 148.567-12.224l-2.821.94m-3.761-94.97l8.463 34.791-1.881 83.687c-57.1 29.169-108.334 23.136-157.97 7.522l27.269-116.597h0m-142.925-28.209l-24.448 113.776c36.221 16.088 78.391 28.932 141.985 30.09m-137.284-49.836c43.599 15.932 90.864 25.755 141.985 29.149m-22.567 21.627l-7.522 34.791c-45.947 2.619-83.162-5.149-109.075-22.567l7.522-36.672h0m-4.702-51.716c51.59 21.122 95.86 25.165 140.104 29.149m-136.343-45.134c45.887 18.99 93.603 27.007 141.985 31.03m-147.627-90.269l-53.597 94.97c-63.039-7.209-97.17-35.442-133.522-62.06l60.179-97.791m-47.955 83.687c37.812 30.311 79.11 52.733 126.94 63m-113.776-86.508c38.866 27.582 81.492 48.896 127.881 63.94m-117.537-79.925c38.68 28.205 81.682 49.206 127.881 64.881m-122.239-81.806c40.644 31.024 85.075 50.686 130.702 66.761m-157.03 15.985l-15.985 27.269c25.357 23.131 54.99 42.597 97.791 50.776l18.806-31.03m-96.139 147.58l21.972-26.869m.117-6.582l-.117 6.582c-1.149 2.4 1.494 1.85 2.938 2.233l19.629.117c3.325-.01 3.337-1.518 3.291-3.056v-6.7m124.002-71.463l-24.918-.47-14.104-14.575c-19.743-9.858-24.375-3.527-26.798 5.172l27.269 39.492c3.646 1.963 6.037 1.418 8.463.94l5.172 10.814 31.5-.94-.47-4.702h0m-24.448 7.052v10.813c4.659 2.465 8.67 6.657 16.925-.47v-10.813m-59.709-44.194l-10.641 19.296c-1.82 4.309-4.075 5.134-6.519 4.447l-30.754-6.038c-5.559.307-7.309 4.422-9.914 7.684l-10.343 16.925m103.433 2.821h0l-1.881 9.403c-1.512 1.274-2.155 2.875-8.463 2.351l-61.119-.47c-2.547-.627-4.818-.594-3.291-5.877l2.586-7.993c.628-1.816.875-4.342 8.698-4.701l56.418.705c6.565-.616 7.985 2.199 7.052 6.582zm-144.806 131.172l9.873-16.925 22.097-3.761 25.967 3.92 50.256-102.555m-50.835 383.545l200.284 90.739m-828.403 389.754l1056.895 37.612c52.134-7.538 100.677-17.64 135.403-37.612 22.168-15.501 28.051-28.287 35.731-41.373 6.137-13.478 3.894-26.955 2.821-40.433-8.063-33.404-27.546-70.615-42.313-106.254-11.46-25.951-29.304-43.922-50.776-57.358-7.24-38.902-17.696-48.859-27.269-66.761m-105.188-539.164l-43.232 12.07c23.094-7.416 46.188-6.169 69.282-22.53l2.771 65.177c-43.014 21.534-118.439 27.434-177.916 1.207l-.554-63.97c8.389 11.127 58.671 18.26 69.836 19.312m-69.836-19.312c5.45-3.336 11.973-6.867 23.279-11.265m152.42 8.851c-11.677-4.359-14.746-5.149-21.062-5.23"/><ellipse ry="49.366" rx="58.769" cy="2874.963" cx="1660.097"/><path d="M1631.644 2868.44h54.521v14.628h-54.521z"/><ellipse ry="72.958" rx="88.25" cy="3175.62" cx="1771.936"/></g><g stroke="#000001"><path d="M1688.824 3149.024l33.245-73.138c18.046-30.368 41.394-42.178 66.489-47.872 30.624-.383 60.427-9.533 94.415 30.585 23.314 25.975 25.818 54.263 17.287 83.776l-42.553 54.521v-2.66m-155.585-73.138c-15.704-24.017-10.831-65.504 18.617-95.744 63.382-37.893 102.273-39.048 130.319-23.936 40.052 12.832 73.157 53.768 83.776 82.447 8.502 37.072 2.133 67.536-21.276 90.425-10.673 15.048-35.343 20.764-55.851 29.255h0m-164.893-130.319c1.821-28.22 4.712-57.082 23.936-95.744 29.813-33.177 63.963-61.398 118.351-66.489 35.628 3.802 66.883 6.244 97.33 26.206 8.77 5.75 21.131 14.173 28.999 22.997 10.919 10.997 41.997 62.926 37.234 99.734-3.388 36.278-21.449 55.625-38.564 78.457-11.427 10.678-14.994 13.237-35.904 26.596-9.309-6.649-2.66 2.66-2.66 2.66"/><ellipse ry="63.564" rx="148.67" cy="2950.887" cx="2521.268"/><ellipse ry="6.594" rx="23.744" cy="2476.892" cx="2140.148"/><ellipse ry="6.598" rx="19.896" cy="2385.563" cx="2196.635"/></g><path d="M2179.847 2387.391l-.384 18.661c-.452 4.286 1.005 4.994 3.044 4.61l26.686-.175c2.987.085 4.831-1.555 4.372-4.289l.191-19.472" stroke="#000"/></g><text xml:space="preserve" x="118.134" y="139.638" transform="scale(.91260119 1.0957689)" font-size=".706" font-family="sans-serif" letter-spacing="0" word-spacing="0" fill="#000"><tspan x="118.134" y="139.638">specimen</tspan></text></svg>