<svg xmlns="http://www.w3.org/2000/svg" width="5376" height="4032"  xmlns:v="https://vecta.io/nano"><path d="M2195.24 1965.127l.591 17.746c77.677 42.994 91.025 52.737 125.408 73.352l385.69 80.451 87.549 4.732 44.958-68.62-73.639-115.394c-25.497-6.323-53.686-6.185-68.62-37.859-3.806 15.993-37.029-3.967-58.868-10.014-12.903-22.442-39.234-49.36-70.986-78.084 2.862 26.096 6.111 52.45-9.465 66.254-19.873 20.949-19.36 36.984-68.62 52.056-93.508 31.272-223.497 40.095-294 15.38zm1848.592 931.099l-305.239-238.986h0c-55.719-112.994-140.39-177.735-212.958-262.648l-183.403-173.517-133.668-181.413-81.888-88.882-69.549-121.709c-23.274-25.09-45.953-47.096-59.439-73.277-17.089-33.177-28.017-70.191-101.463-97.089-35.493 2.986-70.986 5.143-106.479 14.197l-224.789 9.465c-29.3-62.44-44.279-60.438-61.521-68.62m263.124 343.543c-23.045-50.735-14.258-115.618 2.51-184.047m-575.605 189.519c-71.72-52.059-113.651-62.413-170.366-93.465m102.93 54.422c20.34-52.033-17.392-88.784-55.606-125.408m-210.591 418.817c83.572 75.009 291.21 177.251 249.634 224.789m-270.93-37.859c24.836 73.159 49.445 146.432 111.211 201.127 40.433 40.806 77.68 84.799 99.38 144.338 30.325 74.187 58.774 150.458 144.338 163.268m-74.535-1158.253c203.271 121.835 421.389 27.73 447.211-72.169-8.871 53.801-14.376 104.91-1.196 141.07m-371.44 133.852c-17.367-73.919-40.991-143.927-93.697-195.759l-5.019-43.502m1949.042 1178.198l-366.761 984.338c-278.37-126.197-459.297-252.394-667.268-378.592l-558.423-217.69c-102.535-54.776-205.07-126.751-307.606-231.887-92.774-99.716-172.79-215.952-269.746-299.324-36.115-75.493-68.277-156.912-80.451-259.099-6.598-28.394 9.842-56.789 37.859-85.183 15.861-114.558 13.238-231.218 35.493-184.563l-106.479-137.239c-25.116-43.662-23.235-76.525-17.208-107.729 21.511-60.621 43.021-78.268 64.532-95.764 74.218-57.854 151.743-92.144 231.887-108.845l13.914-3.274 66.537-15.656c-24.483-13.786-27.558-38.277-14.197-70.986 35.549-43.694 55.495-53.488 75.718-63.887 100.331-39.363 208.09-39.104 321.803-7.099" fill="none" stroke="#000" stroke-width="6.7"/></svg>