<svg xmlns="http://www.w3.org/2000/svg" width="5376" height="4032"  fill="none" xmlns:v="https://vecta.io/nano"><path d="M3551.662 3151.775z" stroke="#000"/><path d="M1930.82 2979.586c.507-16.782 16.011-18.568 26.77-25.097 9.851-66.447-6.266-66.528-15.058-85.331-21.17-26.213-46.465-52.425-48.521-78.638 17.119-23.982-.681-47.964-8.366-71.946 24.071-21.149 54.44-39.148 61.907-68.599 22.724 20.22 52.061 33.828 83.658 45.175l18.405 1.673c-2.589 14.005 9.177 22.941 8.366 38.483-8.856 14.066-11.777 33.629-18.405 61.07l-8.316 26.558c-14.934 20.919-28.318 43.893-35.186 75.504-10.762 18.633-10.71 56.381-15.058 87.841-32.221-20.27-40.742-3.972-50.195-6.693zm-33.528-173.828c-7.71 6.497-17.49 11.077-28.394 10.944m-28.986 53.831c-5.258 12.456-14.625 16.694-24.549 19.817m122.451 74.831c-3.935-10.253-9.104-20.507-17.746-30.761-14.63-14.152-29.096-28.375-49.099-40.225-7.493-9.957-16.07-19.157-31.352-23.662 3.256-12.081 6.25-24.332-5.916-46.437l-9.761-21c-5.899 16.515-16.406 19.203-25.141 27.211-3.435 6.587-8.087 12.904-4.732 21 .283 29.071 6.525 55.976-.887 87.845-1.361 9.208-1.522 20.815-5.028 25.732-1.449 6.157-6.48 6.941-10.944 8.577m19.761-65.822c3.955 4.448 6.621 5.213 14.222 20.078 7.192 13.181 13.606 26.984 23.424 38.064 5.753 4.806 9.312 11.497 12.13 18.823m-128.988 53.927c13.393 17.823 21.506 39.165 25.437 63.296m44.366 5.324c20.212-50.463 33.424-102.055 5.324-160.31m15.38 53.239c6.347-4.49 9.938-13.8 17.413-18.143 9.988-5.804 12.177-2.306 33.183 8.692 7.186 3.762 12.882-14.099 21.932-17.892 15.028-6.3 21.751-10.556 51.107 6.639m78.676 114.169c-12.159-8.489-8.457-26.041-10.648-40.225m.592.592c-3.669-21.523.089-38.994-19.521-69.211m117.718 21.887c-13.026.291-26.233.394-40.817 5.324-13.668 8.445-16.536 14.19-17.746 19.521l-7.099 52.056c.871 7.468 4.935 10.146 8.873 13.014 13.211 4.996 26.423 8.071 39.634.592m-390.423-148.479c-11.112-32.465-19.043-68.111-25.437-105.296-8.607-28.194-2.78-61.542 10.648-97.606 18.586-60.09 47.458-109.894 73.352-162.676 4.756-47.153 11.111-93.303 82.225-98.789m-7.69 318.253c13.133-23.398 32.21-48.605 28.394-66.845l-8.282-10.648c15.333 7.071 30.692 14.299 41.408-7.099m-97.606 387.465c-13.559 9.241-25.864 7.199-37.859 2.366-26.2-20.933-37.658-43.972-33.008-69.313l-22.801-45.245c-2.574-14.332-7.444-24.836-5.713-46.344l-70.394-169.775c-10.204-16.334-9.451-33.763-3.938-51.668 15.553-65.054 56.368-148.065 83.797-221.036 6.169-64.24 23.331-100.998 47.324-120.676l139.606-56.789 130.141-85.183 132.507-78.084 104.113-59.155 42.592-56.789 47.324-21.296 16.563-30.761 18.93-3.346 16.563-13.217 49.69-16.563c28.639-1.233 37.831-8.948 54.423-14.197l383.324-298.141c244.058-164.863 294.588-218.75 411.718-260.282 50.615-29.952 110.941-54.561 151.491-77.607 187.698-106.67 259.294-145.671 307.551-156.647l-2.366 648.338-309.972 170.366c-104.059 46.816-205.046 94.656-321.803 137.239l-283.944 89.916c-51.091 13.442-65.267 21.205-168 42.592l-32.364 6.811m0 0c-26.764 8.345-122.693 62.575-126.171 57.076l-57.195 59.442c-52.775 62.704-63.073 135.959-80.045 200.84-22.176 33.622-50.611 65.158-99.38 89.916l-40.225 87.549-47.324 68.62c-13.196 45.747-19.916 91.493-49.69 137.239l-33.127 40.225c-5.179 44.66-3.243 85.724-24.253 118.901-20.677 1.805-45.541 12.71-65.662-17.155 14.431 16.498 18.813 34.432 2.104 55.378m-225.118-41.772c-10.982 14.131-5.7 26.584 9.827 33.893 11.147 15.665 24.788 23.619 48.103 1.673 6.556 16.255 8.474 35.553 49.358 29.28 30.642 24.035 50.003 13.197 68.599 0 13.832-3.541 19.867-10.981 22.588-20.078 10.91 6.609 20.188 7.099 26.643-2.996" stroke="#00000a" stroke-width="4"/><path d="M5934.423 2441.916z" stroke="#000"/></svg>