<?xml version="1.0" encoding="UTF-8" standalone="no"?>
<!-- Created with Inkscape (http://www.inkscape.org/) -->

<svg
   xmlns:dc="http://purl.org/dc/elements/1.1/"
   xmlns:cc="http://creativecommons.org/ns#"
   xmlns:rdf="http://www.w3.org/1999/02/22-rdf-syntax-ns#"
   xmlns:svg="http://www.w3.org/2000/svg"
   xmlns="http://www.w3.org/2000/svg"
   xmlns:xlink="http://www.w3.org/1999/xlink"
   xmlns:sodipodi="http://sodipodi.sourceforge.net/DTD/sodipodi-0.dtd"
   xmlns:inkscape="http://www.inkscape.org/namespaces/inkscape"
   width="161.12924mm"
   height="161.12924mm"
   viewBox="0 0 161.12924 161.12924"
   version="1.1"
   id="svg862"
   inkscape:version="0.92.4 (5da689c313, 2019-01-14)"
   sodipodi:docname="lens_switch.svg">
  <defs
     id="defs856">
    <linearGradient
       inkscape:collect="always"
       id="linearGradient882-3">
      <stop
         id="stop880"
         offset="0"
         style="stop-color:#808080;stop-opacity:0;" />
      <stop
         id="stop878"
         offset="1"
         style="stop-color:#808080;stop-opacity:1;" />
    </linearGradient>
    <radialGradient
       inkscape:collect="always"
       xlink:href="#linearGradient882-3"
       id="radialGradient909"
       cx="154.09802"
       cy="198.49402"
       fx="154.09802"
       fy="198.49402"
       r="17.698301"
       gradientUnits="userSpaceOnUse" />
    <radialGradient
       inkscape:collect="always"
       xlink:href="#linearGradient882-3"
       id="radialGradient917"
       cx="57.346455"
       cy="199.02856"
       fx="57.346455"
       fy="199.02856"
       r="17.698301"
       gradientUnits="userSpaceOnUse" />
  </defs>
  <sodipodi:namedview
     id="base"
     pagecolor="#ffffff"
     bordercolor="#666666"
     borderopacity="1.0"
     inkscape:pageopacity="0.0"
     inkscape:pageshadow="2"
     inkscape:zoom="0.49497474"
     inkscape:cx="3.8182985"
     inkscape:cy="313.29136"
     inkscape:document-units="mm"
     inkscape:current-layer="layer1"
     showgrid="false"
     inkscape:window-width="1366"
     inkscape:window-height="705"
     inkscape:window-x="-8"
     inkscape:window-y="-8"
     inkscape:window-maximized="1" />
  <metadata
     id="metadata859">
    <rdf:RDF>
      <cc:Work
         rdf:about="">
        <dc:format>image/svg+xml</dc:format>
        <dc:type
           rdf:resource="http://purl.org/dc/dcmitype/StillImage" />
        <dc:title />
      </cc:Work>
    </rdf:RDF>
  </metadata>
  <g
     inkscape:label="Layer 1"
     inkscape:groupmode="layer"
     id="layer1"
     transform="translate(-24.739572,-89.749605)">
    <circle
       style="opacity:0.8;fill:none;fill-opacity:1;stroke:#000000;stroke-width:1.5;stroke-miterlimit:4;stroke-dasharray:none;stroke-opacity:1"
       id="path1007"
       cx="148.79283"
       cy="195.65601"
       r="29.720682" />
    <circle
       style="opacity:0.8;fill:none;fill-opacity:1;stroke:#000000;stroke-width:1.5;stroke-miterlimit:4;stroke-dasharray:none;stroke-opacity:1"
       id="path1009"
       cx="61.66114"
       cy="195.65601"
       r="29.720682" />
    <path
       style="fill:none;stroke:#000000;stroke-width:1.5;stroke-linecap:butt;stroke-linejoin:miter;stroke-miterlimit:4;stroke-dasharray:none;stroke-opacity:1"
       d="M 154.09803,198.49401 Z"
       id="path912-2"
       inkscape:connector-curvature="0" />
    <path
       style="fill:none;stroke:#000000;stroke-width:1.5;stroke-linecap:butt;stroke-linejoin:miter;stroke-miterlimit:4;stroke-dasharray:none;stroke-opacity:1"
       d="M 154.09803,209.07734 Z"
       id="path914-4"
       inkscape:connector-curvature="0" />
    <circle
       style="opacity:0.85700001;fill:url(#radialGradient909);fill-opacity:1.0;stroke:#000000;stroke-width:1.5;stroke-miterlimit:4;stroke-dasharray:none;stroke-opacity:1"
       id="path817-1"
       cx="154.09802"
       cy="198.49402"
       r="16.948301" />
    <path
       style="fill:none;stroke:#000000;stroke-width:1.5;stroke-linecap:butt;stroke-linejoin:miter;stroke-miterlimit:4;stroke-dasharray:none;stroke-opacity:1"
       d="M 56.277379,199.56309 Z"
       id="path912-21"
       inkscape:connector-curvature="0" />
    <path
       style="fill:none;stroke:#000000;stroke-width:1.5;stroke-linecap:butt;stroke-linejoin:miter;stroke-miterlimit:4;stroke-dasharray:none;stroke-opacity:1"
       d="M 56.277379,210.14642 Z"
       id="path914-2"
       inkscape:connector-curvature="0" />
    <circle
       style="opacity:0.85700001;fill:url(#radialGradient917);fill-opacity:1.0;stroke:#000000;stroke-width:1.5;stroke-miterlimit:4;stroke-dasharray:none;stroke-opacity:1"
       id="path817-9"
       cx="57.346455"
       cy="199.02856"
       r="16.948301" />
    <g
       aria-label="100x"
       transform="rotate(120,-6.987386,-12.586794)"
       style="font-style:normal;font-variant:normal;font-weight:bold;font-stretch:normal;font-size:11.28888893px;line-height:1.25;font-family:'Comic Sans MS';-inkscape-font-specification:'Comic Sans MS Bold';letter-spacing:0px;word-spacing:0px;fill:#000000;fill-opacity:1;stroke:none;stroke-width:0.26458332"
       id="text856">
      <path
         d="m 85.512633,-228.68939 -2.188324,-0.006 q -1.041797,0 -1.041797,-0.65595 0,-0.73863 1.163064,-0.73863 0.110243,0 0.242535,0.006 v -4.88928 q -0.479558,0.33073 -0.622874,0.33073 -0.30868,0 -0.540191,-0.22049 -0.225998,-0.22049 -0.225998,-0.51263 0,-0.30317 0.369314,-0.62287 l 0.622874,-0.452 0.672482,-0.54019 q 0.413412,-0.29766 0.799262,-0.29766 0.496094,0 0.496094,0.59532 0,0.65594 -0.05512,1.84657 -0.05512,1.19062 -0.05512,3.401 v 1.33394 h 0.363802 q 0.319705,0 0.534679,0.20395 0.220486,0.20395 0.220486,0.50711 0,0.30317 -0.220486,0.50712 -0.214974,0.20395 -0.534679,0.20395 z"
         style="font-size:11.28888893px;stroke-width:0.26458332"
         id="path858"
         inkscape:connector-curvature="0" />
      <path
         d="m 91.250784,-228.47993 q -1.824522,0 -2.645833,-1.57647 -0.606337,-1.16858 -0.606337,-3.01515 0,-1.57648 0.799262,-2.7671 0.959115,-1.42765 2.623785,-1.42765 1.576476,0 2.447396,1.27331 0.733116,1.07487 0.733116,2.59622 0,2.45842 -0.837847,3.68763 -0.837847,1.22921 -2.513542,1.22921 z m 0.165365,-7.35321 q -0.892969,0 -1.43316,0.88746 -0.474045,0.7717 -0.474045,1.79145 0,1.34496 0.253559,2.07257 0.407899,1.17409 1.488281,1.17409 0.903993,0 1.35599,-0.82131 0.451996,-0.82683 0.451996,-2.47496 0,-1.31741 -0.413411,-1.97335 -0.4079,-0.65595 -1.22921,-0.65595 z"
         style="font-size:11.28888893px;stroke-width:0.26458332"
         id="path860"
         inkscape:connector-curvature="0" />
      <path
         d="m 98.151999,-228.47993 q -1.824522,0 -2.645833,-1.57647 -0.606337,-1.16858 -0.606337,-3.01515 0,-1.57648 0.799262,-2.7671 0.959115,-1.42765 2.623785,-1.42765 1.576476,0 2.447394,1.27331 0.73312,1.07487 0.73312,2.59622 0,2.45842 -0.83785,3.68763 -0.837846,1.22921 -2.513541,1.22921 z m 0.165365,-7.35321 q -0.892969,0 -1.43316,0.88746 -0.474045,0.7717 -0.474045,1.79145 0,1.34496 0.253559,2.07257 0.407899,1.17409 1.488281,1.17409 0.903993,0 1.35599,-0.82131 0.451996,-0.82683 0.451996,-2.47496 0,-1.31741 -0.413411,-1.97335 -0.407899,-0.65595 -1.22921,-0.65595 z"
         style="font-size:11.28888893px;stroke-width:0.26458332"
         id="path862"
         inkscape:connector-curvature="0" />
      <path
         d="m 107.677,-233.16526 q -0.31419,0.2701 -0.81029,0.71107 l -0.84336,0.78273 1.68121,2.05603 q 0.1819,0.226 0.1819,0.44648 0,0.28664 -0.23151,0.50161 -0.23151,0.21497 -0.52917,0.21497 -0.30868,0 -0.55121,-0.26458 -0.49609,-0.54019 -1.63711,-1.94579 -0.44648,0.44649 -1.38355,1.30087 -0.29766,0.24805 -0.452,0.41341 -0.24253,0.25356 -0.5457,0.25356 -0.29766,0 -0.52917,-0.21497 -0.226,-0.21498 -0.226,-0.50161 0,-0.31971 0.452,-0.73312 0.3638,-0.31419 0.72761,-0.62287 0.33624,-0.33624 1.0473,-1.03077 -0.30868,-0.42995 -0.62287,-0.8599 -0.38034,-0.50712 -0.71658,-0.78824 -0.28663,-0.23702 -0.28663,-0.53468 0,-0.28663 0.21497,-0.50711 0.22049,-0.226 0.52366,-0.226 0.39136,0 1.08038,0.78824 l 0.88194,1.1355 q 0.47405,-0.39688 0.94258,-0.79375 0.58429,-0.50712 0.83785,-0.86541 0.23702,-0.33624 0.60082,-0.33624 0.29766,0 0.52917,0.20946 0.23702,0.20946 0.23702,0.4961 0,0.35829 -0.57326,0.91501 z"
         style="font-size:11.28888893px;stroke-width:0.26458332"
         id="path864"
         inkscape:connector-curvature="0" />
    </g>
    <text
       xml:space="preserve"
       style="font-style:normal;font-variant:normal;font-weight:bold;font-stretch:normal;font-size:11.28888893px;line-height:1.25;font-family:'Comic Sans MS';-inkscape-font-specification:'Comic Sans MS Bold';letter-spacing:0px;word-spacing:0px;fill:#000000;fill-opacity:1;stroke:none;stroke-width:0.26458332"
       x="-213.52733"
       y="-21.517365"
       id="text876"
       transform="rotate(-120)"><tspan
         sodipodi:role="line"
         id="tspan874"
         x="-213.52733"
         y="-21.517365"
         style="font-size:11.28888893px;stroke-width:0.26458332">500x</tspan></text>
  </g>
</svg>
