<?xml version="1.0" encoding="UTF-8" standalone="no"?>
<!-- Created with Inkscape (http://www.inkscape.org/) -->

<svg
   xmlns:dc="http://purl.org/dc/elements/1.1/"
   xmlns:cc="http://creativecommons.org/ns#"
   xmlns:rdf="http://www.w3.org/1999/02/22-rdf-syntax-ns#"
   xmlns:svg="http://www.w3.org/2000/svg"
   xmlns="http://www.w3.org/2000/svg"
   xmlns:sodipodi="http://sodipodi.sourceforge.net/DTD/sodipodi-0.dtd"
   xmlns:inkscape="http://www.inkscape.org/namespaces/inkscape"
   version="1.1"
   id="svg815"
   width="211.95161"
   height="210.32001"
   viewBox="0 0 211.95161 210.32001"
   sodipodi:docname="bucket.svg"
   inkscape:version="0.92.4 (5da689c313, 2019-01-14)">
  <metadata
     id="metadata821">
    <rdf:RDF>
      <cc:Work
         rdf:about="">
        <dc:format>image/svg+xml</dc:format>
        <dc:type
           rdf:resource="http://purl.org/dc/dcmitype/StillImage" />
        <dc:title />
      </cc:Work>
    </rdf:RDF>
  </metadata>
  <defs
     id="defs819" />
  <sodipodi:namedview
     pagecolor="#ffffff"
     bordercolor="#666666"
     borderopacity="1"
     objecttolerance="10"
     gridtolerance="10"
     guidetolerance="10"
     inkscape:pageopacity="0"
     inkscape:pageshadow="2"
     inkscape:window-width="1366"
     inkscape:window-height="705"
     id="namedview817"
     showgrid="false"
     inkscape:zoom="0.60633485"
     inkscape:cx="-284.69448"
     inkscape:cy="93.000638"
     inkscape:window-x="-8"
     inkscape:window-y="-8"
     inkscape:window-maximized="1"
     inkscape:current-layer="svg815" />
  <path
     style="fill:none;stroke:#000000;stroke-width:1px;stroke-linecap:butt;stroke-linejoin:miter;stroke-opacity:1"
     d="M 1.6540117,34.740623 C 1.1852675,31.211151 -0.80639652,30.257525 1.8247975,16.519509 67.700573,-13.507226 206.12529,5.8910825 210.88843,16.790338 c 0.89464,3.473112 0.59948,7.541125 -0.05,11.786304 C 199.15956,47.253005 45.190845,57.16486 1.6540117,34.740623 Z M 14.577212,17.444179 c -3.456214,2.209474 -2.728862,3.926764 0.412313,5.360075 59.614101,12.347038 120.429865,10.874929 182.242535,-2.061567 3.55065,-1.368925 3.39381,-3.128686 -1.23694,-5.360075 C 137.17159,4.5260675 76.699251,5.2111705 14.577212,17.444179 Z M 198.05669,35.58597 187.95501,167.73243 c 0.0614,7.37624 -2.03993,11.50851 -4.12313,15.66791 -9.09377,21.90658 -113.781361,44.78542 -150.494407,3.50466 -3.43048,-4.00678 -3.713588,-6.96444 -3.916978,-9.89552 L 12.670262,39.090634"
     id="path825"
     inkscape:connector-curvature="0"
     sodipodi:nodetypes="cccccccccccccccc" />
</svg>
