<svg xmlns="http://www.w3.org/2000/svg" width="5376" height="4032"  fill="none" xmlns:v="https://vecta.io/nano"><g stroke-width="7.559"><path d="M1552.687 3011.376l548.795-30.117 1823.738-43.502c173.987 6.134 286.827 94.465 326.265 182.374 57.131 108.641 38.233 179.403-8.893 272.996-82.367 123.187-181.845 170.21-293.408 201.127l-1355.831 35.493-948.845 35.493c-113.236-15.809-226.108-23.236-345.465-179.831-57.329-87.233-70.283-191.855-27.302-294.022 5.964-14.177 29.063-42.037 38.44-55.363 60.413-87.972 151.476-97.912 242.507-124.647zm2677.047 70.273l-197.432-314.553c-49.411-79.938-107.705-149.883-227.549-150.584l-740.527.502m-1329.803 390.423c99.924 24.75 193.98 71.8 262.648 215.324 28.562 82.474 33.582 162.807-7.099 238.986-82.507 132.773-186.823 150.933-241.352 170.366-99.558-2.224-186.853 22.119-321.803-56.789-72.977-46.197-119.077-124.646-160.901-208.225-15.688-153.559 18.575-165.587 37.859-220.056 57.955-81.856 150.987-111.097 246.085-137.24zm283.944 383.324l92.282-404.62-2.366 2.366m1429.183 373.859l-146.704-406.986h0 0m-1332.169 269.747l1414.986-26.028h0 0m428.282-257.916c-119.243 17.211-214.679 17.99-350.197 210.592-13.385 67.498-53.769 99.689 9.465 267.38 96.427 137.188 178.231 135.448 262.648 158.535 108.711-3.585 216.928-14.581 319.437-111.211 44.315-48.667 92.074-73.226 118.31-248.451-39.92-118.937-46.263-249.067-359.662-276.845zm-614.028 11.831c1.094 10.81 15.75 15.687-30.761 47.324l-517.014 16.563c-85.655 33.503-57.6 151.341-7.099 194.028l-352.563 2.366c35.208-53.616 126.483-89.77 40.225-186.93-124.706-10.491-155.38-5.521-234.253-9.465-14.197-.823-28.394-1.522-42.591-33.127h7.099m-601.014-274.479l47.324-49.69c59.335-31.28 124.047-50.352 202.31-53.239 80.243-6.443 117.541 19.839 154.986 27.211l4.732 4.732m-318.254 2.366l60.338-87.549c83.155-89.752 154.855-73.743 186.93-80.451 122.267 13.825 152.58 63.776 189.296 111.211l22.479 40.225c57.209 14.224 82.129-3.843 119.493-9.465 7.825-19.116 18.192-26.103 28.884-36.617 21.757-10.715 31.854-5.587 48.017-10.707 28.431-27.79 17.829-62.521 46.141-97.014 78.157-9.824 101.944-.986 148.479-1.775 4.411-22.468.24-25.683 2.366-43.775 5.518-9.661 18.745-15.084 38.451-18.338 33.507-8.098 61.149 16.246 58.563 21.296 2.617 21.851-3.755 36.727 5.037 43.141 5.726-.645 6.595-4.027 13.893.042l6.997 32.584m1295.513 139.796l-83.658-51.868c-36.954-19.886-94.053-30.599-152.257-28.444-37.749 3.889-73.188 11.242-102.062 28.444l-41.829 25.097h0m-1901.718 26.531c-24.838-32.848-39.212-70.181-53.239-107.662-23.572-8.22-56.993 3.45-72.169-27.211-14.678-41.209 1.081-62.62 53.239-66.253-6.948-70.817 1.375-144.587 26.028-215.324 23.99-47.283 45.609-96.811 81.634-146.704L1764 1949.746c6.386-14.866 28.734-29.733 55.469-44.599l35.63-35.852c10.998-19.543 29.107-35.531 46.141-52.056-.738-18.93-12.767-29.649 18.93-72.169 21.16-14.123 42.29-27.672 62.113-28.986 12.014-5.142 14.59 1.332 20.998-.073 14.143-29.039 30.462-33.735 70.692-46.66 25.002-3.777 49.899-6.616 73.352 3.549 22.672 13.015 40.376 28.018 47.324 47.324 11.845 33.374 4.811 65.176-1.775 97.014l26.028 7.69 8.873-17.746 13.014 8.282-6.507 20.113c3.97 18.418 26.967 19.791 44.958 28.394l11.239 28.986c10.419 4.59 24.687 3.865 41.408 8.282l70.394 114.169c27.314 51.268 34.791 102.535 45.549 153.803 18.646 13.295 48.57 20.01 50.282 43.183.892 21.254-6.252 23.811-41.408 27.211l-15.972 60.338-18.93 88.732c1.854 14.39-2.27 36.551 14.197 31.944 11.925 6.912 29.996 1.529 34.901 22.479-.886 7.355-.967 14.871-9.465 20.704l-1.183.592m-529.437-635.915c-6.039-10.206-17.72-12.264-10.648-41.408 7.756-20.114 18.057-24.952 27.211-36.676 20.79-7.141 25.955-6.47 34.901-7.69-13.211 12.544-26.422 28.91-39.634 46.141-6.015 11.14-8.888 25.422-11.831 39.634zm1871.662 1436.873c19.175-21.562 38.743-43.046 73.352-61.521l73.352 11.831c24.155 18.141 28.45 36.282 37.859 54.423-4.426 9.839 4.436 48.732-1.183 70.986l-48.507 49.69c-24.122-.088-57.643-7.58-91.099-20.113l-15.38-27.211c-6.427-14.971-21.177-42.218-28.394-78.084zm-2262.085 186.93l-22.479-49.69 28.394-40.225 94.648-5.916 55.606 55.606-21.296 61.521-43.775 22.479c-2.515 13.304-4.855 21.629-7.099 27.211-28.327 27.234-55.538 28.809-81.634 4.732-5.858-15.743-16.84-29.885-5.916-50.873.386-5.89 2.109-15.792 3.549-24.845zm-3.184 24.649c12.484-14.285 68.21-28.446 94.115 19.66l20.914-62.325c1.223-19.671-14.733-31.161-36.809-39.737-26.631-8.226-39.353-2.544-50.613 4.601l-23.842 53.541m101.226-94.533l16.313-47.685 53.541 62.743-15.895 40.574m-37.228-104.99l-105.827 13.385-8.366 40.574m-25.516 39.319l5.019-40.156 29.698-41.411m27.189-1092.988c101.085-53.908 200.402-110.807 329.611-117.121 81.335 5.288 151.753-10.531 264.358 55.214 123.466 98.498 170.202 199.891 175.681 302.841l71.946-82.821c-9.534-102.475-63.367-191.32-130.506-276.07-162.51-107.392-235.72-91.695-318.736-89.514-87.806 4.186-121.736 23.318-158.113 31.79-82.736 19.623-143.163 70.272-187.393 89.514m303.677-312.043c-.062 52.875 19.987 95.694 77.802 119.63 26.757-3.044 47.019 5.279 90.35-26.771 43.611-30.198 41.72-73.136 30.117-118.794-41.073-74.563-102.476-56.635-133.852-50.195-44.933 26.842-54.235 51.458-64.417 76.129zm78.638 117.121l-3.346 19.241c80.876 7.113 166.612 20.243 293.639 84.494 13.91-37.769 23.917-73.586 46.012-115.448-38.303-24.866-77.983-43.452-122.977-52.704l-7.277-12.818c16.483 3.621 31.443.811 15.888-15.966-2.416-2.606.819-14.654 2.05-17.636m-14.493-10.943l-6.507 16.859c-9.988-.749-16.93 3.413-17.155 7.099-.502 8.093 3.944 11.943 8.873 15.38l-17.155 31.944c-15.516.343-11.602-.055-15.972 1.775-11.329 3.034 4.739 19.954 16.563 22.183 4.338 1.237 8.676 2.489 13.014 2.958m14.894-53.652c-3.959 7.973-9.066 20.912-13.798 31.205 5.494 2.231 10.542 9.194 12.997 11.425 9.363 8.251-4.375 11.827-11.999 11.18l-9.202 18.405-74.455-34.3 73.579-91.63m-342.538 660.502c11.473-10.134 13.006-19.794 46.012-30.953 47.771-4.012 98.017-6.843 143.274 55.07 3.697 5.058 5.355 12.624 6.891 18.549 3.665 16.114 2.221 19.081 3.765 30.953m-250.555-62.743c-21.636-19.678-19.95-45.717-17.568-71.946 32.311-55.627 109.428-100.857 222.781-74.72 55.375 12.768 118.194 44.11 134.438 100.654 22.259 67.746.185 129.359-44.339 174.845m-263.522-252.646c-59.245-46.839-105.217-101.973-152.257-156.44-5.736-15.024 2.044-26.186 11.712-36.809m17.568 373.95c-43.356 3.252-87.249 2.745-132.179-5.019m456.771-191.576c21.435-1.334 43.365-1.016 60.234-17.568l71.946-87.841c8.426-12.286 17.773-22.994 20.914-44.339l.837-21.751m-40.156 346.343c44.133 8.097 107.187-1.009 175.681-15.058m-655.876-430.837c73.515-29.487 142.132-68.771 225.876-77.802l58.56-91.187m-191.576 46.848c57.662-24.41 109.863-53.827 179.864-66.926m550.886 581.421l.418 33.045c29.858 26.909 63.144 29.82 100.807 2.091l1.673-35.136c-46.317 21.914-75.198 12.033-102.899 0zm2.51-43.502c31.387 20.077 63.843 20.914 97.461.837m-1314.262 756.266l190.739-371.44c33.53-87.29 113.915-126.288 184.25-143.893l304.056-26.028 392.789-16.563 309.769-5.713 406.006-1.386m760.605-25.6h1.673l-53.541-81.985c-23.174-18.962-53.306-37.925-98.716-56.887-44.683-11.969-84.616-29.636-172.335 10.039-.547 3.631-47.112 17.607-92.023 80.311-19.476 4.361-73.764 57.706-128.833 6.693l-167.315 3.346c-44.232-22.714-87.586-45.539-142.218-66.926m0 0h0c-19.062-7.403-49.901-11.996-81.985-15.058-91.072 5.815-182.144 13.503-273.216 32.539m915.707 113.026l-122.14-74.455" stroke="#000500"/><path d="M3551.662 3151.775z" stroke="#000"/></g><path d="M5934.423 2441.916z" stroke="#000"/><g stroke-width="7.559"><ellipse cx="3919.606" cy="3325.69" rx="43.106" ry="36.27" stroke="#000"/><ellipse cx="3895.944" cy="3264.169" rx="294.619" ry="254.394" stroke="#000"/><ellipse cx="1630.31" cy="3352.902" rx="288.632" ry="250.773" stroke="#000"/><ellipse cx="2023.099" cy="1859.831" rx="40.225" ry="33.127" stroke="#000500"/></g></svg>