<svg xmlns="http://www.w3.org/2000/svg" width="5376" height="4032"  xmlns:v="https://vecta.io/nano"><g fill="none"><path d="M3405.349 3121.742z" stroke="#000" stroke-width=".892"/><path d="M2170.348 2767.706c.463-14.619 14.613-16.174 24.433-21.862 8.991-57.881-5.719-57.952-13.744-74.331-19.322-22.834-42.408-45.667-44.285-68.501 15.625-20.89-.622-41.781-7.635-62.671 21.97-18.422 49.688-34.102 56.502-59.756 20.74 17.613 47.515 29.467 76.354 39.352l16.798 1.457c-2.363 12.2 8.376 19.983 7.635 33.522-8.083 12.252-10.749 29.294-16.798 53.198l-7.59 23.135c-13.63 18.223-25.846 38.234-32.114 65.771-9.822 16.231-9.775 49.113-13.744 76.517zm-30.601-151.419c-7.037 5.66-15.963 9.649-25.915 9.533m-26.455 46.892c-4.799 10.851-13.348 14.542-22.406 17.262m111.76 65.184c-3.591-8.932-8.31-17.863-16.197-26.795-13.353-12.328-26.556-24.717-44.812-35.04-6.839-8.674-14.667-16.687-28.615-20.612 2.972-10.523 5.705-21.195-5.399-40.45l-8.908-18.293c-5.384 14.386-14.974 16.728-22.946 23.703-3.135 5.738-7.381 11.24-4.319 18.293.258 25.324 5.955 48.76-.81 76.521-1.242 8.021-1.389 18.132-4.589 22.415-1.323 5.363-5.915 6.047-9.988 7.472m18.035-57.337c3.61 3.875 6.043 4.541 12.98 17.49 6.564 11.482 12.418 23.505 21.379 33.157 5.251 4.187 8.499 10.015 11.071 16.396m-117.726 46.976c12.223 15.525 19.628 34.116 23.216 55.136m40.493 4.637c18.448-43.957 30.506-88.898 4.859-139.644m14.038 46.376c24.046-16.234 61.439-22.412 112.84-18.035m71.807 99.451c-11.097-7.394-7.719-22.684-9.718-35.04-56.015 31.016-114.432 38.193-177.628-2.061m178.168 2.577c-3.349-18.748.081-33.967-17.817-60.289m107.441 19.066c-11.889.253-23.943.343-37.253 4.638-12.474 7.356-15.092 12.361-16.197 17.005l-6.479 45.346c.795 6.505 4.504 8.838 8.099 11.336 12.058 4.352 24.116 7.031 36.173.515m-356.336-129.338c-10.142-28.28-17.381-59.331-23.216-91.722-7.855-24.559-2.538-53.609 9.718-85.023 16.963-52.344 43.315-95.727 66.948-141.705 4.341-41.074 10.14-81.275 75.047-86.054m-7.019 277.227c11.986-20.382 29.398-42.339 25.915-58.228l-7.559-9.275c13.994 6.16 28.012 12.456 37.793-6.184m-89.084 337.516c-12.375 8.05-23.606 6.271-34.554 2.061-23.913-18.235-34.371-38.304-30.126-60.377l-20.81-39.412c-2.349-12.485-6.794-21.634-5.214-40.37l-64.249-147.889c-9.313-14.228-8.626-29.41-3.594-45.007 14.195-56.668 51.447-128.977 76.481-192.542 5.63-55.958 21.294-87.978 43.192-105.119l127.417-49.468 118.779-74.202 120.938-68.018 95.023-51.529 38.873-49.468 43.192-18.551 15.117-26.795 17.277-2.915 15.117-11.513 45.352-14.428c26.139-1.074 34.528-7.795 49.671-12.367l349.857-259.707c222.75-143.61 268.869-190.55 375.773-226.728 46.196-26.091 101.255-47.527 138.265-67.602 171.311-92.919 236.656-126.892 280.7-136.453l-2.16 564.759-282.909 148.404c-94.974 40.781-187.144 82.454-293.708 119.547l-259.154 78.324c-46.631 11.709-59.569 18.471-153.332 37.101l-29.539 5.933m0 0c-24.427 7.269-111.981 54.508-115.156 49.718l-52.201 51.779c-48.168 54.621-57.566 118.432-73.056 174.949-20.24 29.288-46.193 56.758-90.704 78.324l-36.713 76.263-43.192 59.774c-12.044 39.849-18.178 79.698-45.352 119.548l-30.235 35.04c-4.727 38.903-2.96 74.673-22.136 103.573-18.872 1.572-41.565 11.072-59.929-14.943l-6.479 57.713c-58.649 41.827-136.139 41.514-196.495-6.864l-.57-38.997" stroke="#000200" stroke-width="3.78"/><path d="M5934.423 2441.916z" stroke="#000"/></g><g stroke="#000200" stroke-width="3.78" fill="#fff"><path d="M2002.109 2866.002c-1.775-5.611-12.684-29.265-24.242-52.565s-21.014-48.459-21.014-55.909-5.497-34.061-12.217-59.135c-22.109-82.506-15.173-120.354 41.916-228.692 13.902-26.382 25.28-53.928 25.285-61.213.019-27.015 20.026-53.377 48.857-64.379l27.487-10.489-23.782 2.888c-31.701 3.849-50.098 21.673-59.023 57.184-4.051 16.116-20.479 55.85-36.507 88.299-38.612 78.171-51.087 120.248-46.532 156.954 1.977 15.931 2.638 27.955 1.469 26.718-6.914-7.314-40.254-91.53-40.254-101.682 0-14.8 20.568-72.788 53.647-151.25 13.518-32.064 27.648-72.775 31.399-90.468 11.665-55.016 20.792-63.875 95.703-92.892 36.651-14.197 90.002-40.634 118.559-58.748 44.549-28.26 157.474-92.908 257.48-147.405 15.63-8.517 36.822-26.393 47.093-39.723s29.515-28.868 42.764-34.529 25.697-15.127 27.661-21.035c4.299-12.927 50.974-34.264 94.396-43.152 27.603-5.65 52.755-22.222 201.025-132.45 93.211-69.296 234.069-169.06 313.019-221.698 118.606-79.078 162.117-104.351 250.441-145.465 58.793-27.368 153.624-74.711 210.737-105.207 92.803-49.554 185.512-94.411 195.125-94.411 1.933 0 2.8 125.239 1.927 278.31l-1.586 278.309-131.329 69.405c-72.231 38.173-186.303 92.909-253.495 121.637-155.66 66.552-422.963 152.453-574.181 184.521-30.236 6.412-81.088 23.318-113.004 37.568-95.959 42.846-141.72 97.796-171.729 206.212-14.72 53.182-37.562 84.728-79.759 110.151-17.211 10.37-27.916 23.402-39.122 47.632-8.485 18.346-26.376 49.416-39.757 69.045s-29.552 53.121-35.936 74.426-17.973 48.792-25.753 61.082c-36.621 57.846-42.881 64.912-57.508 64.912-8.067 0-20.405 5.476-27.418 12.17-10.451 9.974-12.379 17.863-10.69 43.732 1.134 17.359.426 31.559-1.573 31.554-11.326-.024-23.853-24.097-23.853-45.836 0-13.478-3.741-33.051-8.314-43.497-12.124-27.694-3.095-78.235 23.154-129.612 11.995-23.478 21.93-46.129 22.078-50.335s4.22-18.141 9.05-30.966c12.666-33.633 3.274-58.755-23.776-63.598-11.019-1.973-32.86-11.35-48.535-20.838l-28.5-17.25-8.597 15.864c-13.281 24.508-58.676 56.73-76.889 54.579-12.156-1.436-13.875-.293-8.099 5.385 9.38 9.221-3.24 39.997-28.988 70.698-16.382 19.532-18.049 25.556-18.049 65.206 0 24.028-2.826 50.78-6.279 59.449-6.689 16.792-2.487 27.684 5.764 14.941 3.576-5.523 5.976-3.877 8.747 5.999 6.534 23.29 4.384 54.139-5.752 82.53-8.024 22.476-12.355 27.273-24.625 27.273-8.878 0-16.191-4.119-18.116-10.202z"/><path d="M2002.109 2866.002c-1.775-5.611-12.684-29.265-24.242-52.565s-21.014-47.4-21.014-53.557-5.478-33.003-12.174-59.66c-21.69-86.352-16.162-118.402 38.956-225.853 15.506-30.228 28.193-61.184 28.193-68.79 0-24.515 17.874-48.6 44.69-60.22 14.055-6.09 20.608-11.131 14.562-11.202-16.955-.198-45.878 16.062-53.845 30.27-3.944 7.033-10.67 24.714-14.947 39.291s-21.396 55.361-38.042 90.632c-35.227 74.639-46.883 116.528-41.888 150.528l3.58 24.368-14.464-30.012c-28.915-59.998-31.112-69.66-22.694-99.762 4.25-15.197 22.203-63.048 39.895-106.334s35.447-93.179 39.455-110.872c12.601-55.62 22.151-64.993 94.505-92.747 35.39-13.575 92.723-42.299 127.407-63.831s111.385-65.975 170.446-98.763c83.83-46.538 111.696-65.106 127.043-84.656 10.941-13.937 28.558-28.113 39.725-31.967 11.036-3.809 23.412-12.892 27.502-20.186 7.622-13.592 50.497-35.302 83.169-42.113 39.687-8.273 59.709-20.976 219.439-139.218 90.961-67.335 227.231-163.888 302.821-214.562 116.211-77.905 158.191-102.141 271.82-156.93 73.91-35.637 170.116-83.83 213.791-107.094 89.396-47.619 146.134-75.354 166.452-81.368l13.744-4.068-.106 278.768-.107 278.768-154.128 79.342c-138.665 71.381-220.525 109.149-331.269 152.837-94.554 37.301-316.093 104.816-452.562 137.921-196.002 47.546-269.133 106.456-308.438 248.459-11.301 40.827-18.528 54.946-39.554 77.266-14.15 15.021-33.185 31.12-42.302 35.776-10.362 5.293-24.554 23.588-37.861 48.809-11.708 22.188-30.489 53.743-41.737 70.121s-25.104 45.519-30.792 64.758c-18.507 62.597-62.951 131.172-85.014 131.172-27.034 0-36.802 13.797-36.802 51.979 0 19.49-1.636 35.444-3.635 35.453-10.699.046-23.886-24.097-24.121-44.167-.148-12.573-4.069-33.037-8.714-45.475-10.803-28.927-3.831-73.449 18.662-119.172 24.042-48.871 43.615-112.71 39.474-128.75-3.805-14.741-8.871-18.369-42.134-30.17-11.257-3.994-29.68-13.229-40.94-20.522-19.837-12.848-20.59-12.91-24.223-1.986-5.363 16.129-63.374 61.193-76.17 59.171-7.871-1.244-10.76 2.198-10.76 12.819 0 15.582-25.25 60.756-40.879 73.135-7.239 5.734-9.515 19.308-9.515 56.76 0 27.073-2.971 54.522-6.603 60.999-7.526 13.422-1.628 23.489 6.451 11.012 7.723-11.926 14.771 29.577 10.305 60.679-5.455 37.982-15.851 55.684-32.704 55.684-8.491 0-15.817-4.221-17.709-10.202z"/><path d="M2001.683 2866.002c-2.009-5.611-12.838-28.858-24.063-51.659s-21.773-51.808-23.438-64.46-7.203-39.906-12.305-60.566c-18.435-74.648-12.151-107.378 41.775-217.559 15.497-31.663 28.176-62.619 28.176-68.79 0-20.261 18.142-45.247 41.342-56.938 12.537-6.318 19.223-11.603 14.857-11.745-15.447-.501-43.888 17.64-52.305 33.363-4.692 8.763-10.507 24.69-12.923 35.392s-16.432 44.216-31.147 74.475c-37.846 77.823-53.593 130.354-49.236 164.245l3.533 27.484-14.219-29.149c-28.455-58.333-31.33-70.659-23.227-99.575 4.097-14.619 21.002-60.05 37.567-100.957s34.649-91.592 40.187-112.633c16.134-61.301 22.967-68.303 94.974-97.321 34.981-14.097 89.715-41.359 121.631-60.582s104.757-61.065 161.87-92.984c77.461-43.29 112.651-66.766 138.519-92.41 19.073-18.907 38.757-34.377 43.742-34.377s15.533-7.337 23.439-16.305c16.646-18.881 56.394-38.319 98.868-48.351 32.782-7.743 59.374-25.51 251.288-167.891 67.191-49.85 184.013-132.063 259.603-182.697 115.765-77.544 158.627-102.293 271.82-156.95 73.91-35.689 167.368-82.525 207.682-104.08 82.866-44.304 152.21-78.121 172.56-84.15l13.744-4.072-.037 278.768-.037 278.769-148.089 76.708c-81.449 42.189-196.192 97.026-254.985 121.859-120.625 50.95-383.445 135.87-522.26 168.75-110.553 26.185-190.821 60.043-234.237 98.802-36.813 32.864-68.412 88.742-87.008 153.859-11.137 38.996-18.99 54.062-39.566 75.904-14.119 14.988-33.13 31.061-42.247 35.718-10.123 5.171-24.432 23.28-36.76 46.523-11.102 20.931-30.182 53.797-42.4 73.036s-26.575 49.408-31.904 67.043c-19.14 63.341-62.209 128.257-85.093 128.257-26.845 0-42.715 28.048-37.944 67.059 1.372 11.214.723 20.389-1.441 20.389-10.588 0-24.153-23.584-24.153-41.992 0-11.369-3.986-31.452-8.858-44.631-11.78-31.867-4.411-74.37 23.151-133.526 25.423-54.565 37.752-99.568 32.468-118.512-2.901-10.398-15.934-19.449-50.21-34.864l-46.292-20.82-36.293 33.372c-27.127 24.944-39.474 32.578-48.888 30.228-8.515-2.125-12.212-.525-11.413 4.938 2.697 18.43-1.449 28.85-24.698 62.079-23.123 33.049-24.433 37.283-24.433 78.988 0 24.237-2.681 50.796-5.957 59.021-3.345 8.398-3.569 14.954-.509 14.954 2.996 0 6.699-3.279 8.229-7.287 5.183-13.584 12.01 37.164 8.39 62.371-5.455 37.982-15.851 55.684-32.704 55.684-8.329 0-16.034-4.335-18.135-10.202z"/><path d="M1984.416 2831.023c-24.167-48.186-51.996-161.333-51.996-211.404 0-32.278 12.67-69.28 51.089-149.205 15.576-32.403 28.319-63.358 28.319-68.79 0-19.004 18.74-44.204 41.342-55.594 12.537-6.318 18.997-11.603 14.354-11.745s-17.648 5.173-28.901 11.811c-16.22 9.568-22.91 19.534-32.283 48.096-6.503 19.815-24.589 63.335-40.192 96.711-34.632 74.079-48.014 121.517-43.435 153.977l3.437 24.364-14.319-29.149c-28.72-58.464-31.476-70.48-23.081-100.625 4.233-15.197 22.349-64.36 40.26-109.249s35.79-94.955 39.733-111.256c12.57-51.969 21.782-60.704 96.782-91.768 37.353-15.471 95.536-44.843 129.295-65.272s107.95-63.504 164.87-95.723c74.224-42.014 109.921-65.923 126.232-84.547 12.509-14.282 30.618-29.081 40.244-32.886s22.271-12.466 28.102-19.247c14.305-16.635 40.158-29.711 81.19-41.067 46.414-12.844 69.482-27.659 249.637-160.317 142.958-105.269 265.901-190.444 385.33-266.958 25.353-16.243 98.194-54.42 161.87-84.839s152.913-74.949 198.305-98.957c93.421-49.409 161.414-82.553 181.653-88.55l13.744-4.072v279.017 279.017l-148.126 76.312c-219.069 112.859-322.757 155.851-537.137 222.71-72.854 22.721-180.055 53.263-238.224 67.871-128.81 32.347-195.231 61.202-240.638 104.539-38.382 36.632-56.051 68.579-81.463 147.293-19.093 59.14-19.527 59.81-62.339 96.193-28.044 23.832-49.117 47.845-60.293 68.702-9.45 17.635-28.443 50.387-42.207 72.781s-25.026 43.939-25.026 47.878c0 16.317-26.884 73.901-49.778 106.622-17.934 25.632-28.25 35.063-38.352 35.063-23.454 0-37.091 20.58-37.091 55.975 0 17.291-1.636 31.446-3.635 31.456-9.59.045-23.853-23.195-23.853-38.867 0-9.659-3.935-30.041-8.745-45.294-12.799-40.588-4.713-81.629 29.931-151.932 7.901-16.032 17.917-45.577 22.259-65.655 9.438-43.639 9.061-44.176-51.323-73.085l-41.474-19.856-37.252 34.253c-27.729 25.497-40.259 33.343-49.014 30.69-7.825-2.37-11.39-.952-10.648 4.235 2.599 18.182-1.626 28.722-24.766 61.796-23.123 33.049-24.433 37.283-24.433 78.988 0 24.237-2.836 51.187-6.303 59.889-5.436 13.645-5.065 14.842 2.693 8.696 7.568-5.995 9.66-3.749 13.178 14.149 8.974 45.655-8.29 102.008-31.25 102.008-10.957 0-18.032-8.812-36.272-45.181zm178.658-103.476c-9.203-10.423-29.046-27.805-44.096-38.627-17.513-12.593-27.432-24.261-27.553-32.414-.104-7.006-2.9-19.544-6.214-27.862-4.704-11.809-3.365-19.86 6.108-36.73 6.673-11.883 12.133-24.618 12.133-28.3s5.648-8.104 12.552-9.827c9.301-2.321 14.008.521 18.173 10.977 7.908 19.852.383 50.044-13.326 53.466-6.21 1.55-11.29 5.42-11.29 8.6s6.364 4.257 14.143 2.394c11.596-2.778 18.052 1.57 35.853 24.145 36.994 46.915 43.215 65.653 27.885 83.993-6.724 8.045-9.632 6.874-24.368-9.817zm-71.838 115.01c-26.126-9.893-27.487-11.554-27.487-33.537 0-21.793 1.41-23.579 24.433-30.945 35.794-11.452 118.2-6.37 129.184 7.966 15.08 19.683 10.362 42.183-11.062 52.757-29.177 14.4-82.376 16.138-115.067 3.758zm9.034 101.638c-56.554-17.669-65.89-32.443-50.826-80.432 8.088-25.766 7.917-25.708 39.257-13.211 29.983 11.957 85.035 11.957 115.018 0 12.865-5.13 24.261-9.328 25.325-9.328 5.333 0 8.49 51.767 4.064 66.632-9.741 32.718-81.549 52.361-132.839 36.337zm175.24-78.923c-5.9-3.57-6.999-12.176-3.995-31.294 3.18-20.235 7.627-27.885 19.115-32.881 25.897-11.262 28.589-8.719 24.621 23.256-5.061 40.781-17.981 54.085-39.742 40.919zm-182.816-100.611c-.96-1.921-4.04-5.958-6.845-8.973-6.446-6.927-12.317-15.68-20.966-31.257-3.753-6.759-8.523-14.085-10.601-16.28l-3.778-3.991-.912-16.699c-.502-9.184-1.366-21.55-1.921-27.479-1.373-14.67.177-18.249 11.391-26.305 4.394-3.156 9.298-7.626 10.898-9.934l2.909-4.195 5.799 11.694c9.115 18.38 10.391 25.957 6.628 39.356-1.575 5.609-8.587 12.443-15.622 15.226-6.207 2.455-6.395 2.647-4.867 4.951 2.158 3.254 17.281-4.985 21.713-11.83l2.311-3.569 6.417 3.264c3.798 1.932 9.133 6.037 13.073 10.06 3.66 3.738 9.841 8.824 13.734 11.304 8.704 5.544 16.331 11.543 27.595 21.706 10.825 9.767 16.055 16.159 20.627 25.207 3.589 7.104 3.59 7.109 1.542 9.853-1.127 1.51-2.346 3.877-2.71 5.26l-.661 2.514-26.676.05c-20.38.038-28.97.463-36.394 1.8l-10.328 1.753c-.335 0-1.395-1.568-2.355-3.489z"/><path d="M2092.728 2764.804c-.941-1.842-4.027-5.9-6.857-9.018-6.505-7.166-12.321-15.812-21.043-31.282-3.788-6.719-8.726-14.21-10.974-16.648l-4.087-4.432-.05-9.632c-.027-5.298-.71-17.516-1.517-27.152-1.863-22.248-1.232-24.189 10.704-32.914 4.319-3.157 9.239-7.65 10.933-9.984l3.081-4.244 5.778 11.719c9.081 18.416 10.451 26.548 6.639 39.395-1.68 5.662-8.661 12.443-15.661 15.211-6.202 2.454-6.395 2.648-4.874 4.941.811 1.222 1.535 1.239 4.573.105 6.603-2.466 13.585-7.241 16.542-11.314 2.722-3.749 3.12-3.945 5.793-2.847 5.077 2.084 11.359 6.611 17.447 12.574 3.267 3.198 10.327 8.792 15.69 12.43 11.393 7.728 31.614 25.392 37.64 32.881 2.309 2.87 5.815 8.417 7.79 12.326 3.589 7.104 3.59 7.109 1.542 9.853-1.127 1.51-2.346 3.877-2.71 5.26l-.661 2.514-26.136.067c-19.358.05-28.863.517-36.652 1.803l-10.868 1.736c-.193 0-1.122-1.507-2.063-3.349z"/><path d="M2092.027 2763.873c-1.404-2.345-4.359-6.168-6.567-8.494-5.717-6.023-9.498-11.602-18.954-27.964-4.576-7.918-10.136-16.484-12.356-19.035l-4.035-4.638-.71-16.489c-.39-9.069-1.194-21.324-1.786-27.233-1.025-10.237-.957-10.991 1.457-15.974 1.898-3.918 4.418-6.631 10.044-10.812 4.131-3.07 8.939-7.401 10.686-9.623l3.176-4.041 5.756 11.684c9.036 18.342 10.407 26.52 6.597 39.36-1.598 5.385-8.559 12.329-15.016 14.98-5.866 2.409-6.76 3.221-5.568 5.061.615.95 2.062.838 6.138-.475 3.831-1.234 7.207-3.534 11.986-8.164l6.653-6.446 4.685 2.208c2.577 1.214 8.572 5.733 13.323 10.041s13.255 11.078 18.897 15.043c12.467 8.763 30.34 24.458 36.053 31.659 2.309 2.911 5.767 8.396 7.684 12.19l3.485 6.897-2.825 5.47-2.825 5.47-25.915.084c-19.167.062-28.516.532-35.904 1.804l-10.798 1.712c-.445 0-1.958-1.927-3.362-4.273z"/></g></svg>