<svg xmlns="http://www.w3.org/2000/svg" width="5376" height="4032"  xmlns:v="https://vecta.io/nano"><g fill="none"><path d="M3551.662 3151.775z" stroke="#000"/><path d="M1930.82 2979.586c.507-16.782 16.011-18.568 26.77-25.097 9.851-66.447-6.266-66.528-15.058-85.331-21.17-26.213-46.465-52.425-48.521-78.638 17.119-23.982-.681-47.964-8.366-71.946 24.071-21.149 54.44-39.148 61.907-68.599 22.724 20.22 52.061 33.828 83.658 45.175l18.405 1.673c-2.589 14.005 9.177 22.941 8.366 38.483-8.856 14.066-11.777 33.629-18.405 61.07l-8.316 26.558c-14.934 20.919-28.318 43.893-35.186 75.504-10.762 18.633-10.71 56.381-15.058 87.841-32.221-20.27-40.742-3.972-50.195-6.693zm-33.528-173.828c-7.71 6.497-17.49 11.077-28.394 10.944m-28.986 53.831c-5.258 12.456-14.625 16.694-24.549 19.817m122.451 74.831c-3.935-10.253-9.104-20.507-17.746-30.761-14.63-14.152-29.096-28.375-49.099-40.225-7.493-9.957-16.07-19.157-31.352-23.662 3.256-12.081 6.25-24.332-5.916-46.437l-9.761-21c-5.899 16.515-16.406 19.203-25.141 27.211-3.435 6.587-8.087 12.904-4.732 21 .283 29.071 6.525 55.976-.887 87.845-1.361 9.208-1.522 20.815-5.028 25.732-1.449 6.157-6.48 6.941-10.944 8.577m19.761-65.822c3.955 4.448 6.621 5.213 14.222 20.078 7.192 13.181 13.606 26.984 23.424 38.064 5.753 4.806 9.312 11.497 12.13 18.823m-128.988 53.927c13.393 17.823 21.506 39.165 25.437 63.296m44.366 5.324c20.212-50.463 33.424-102.055 5.324-160.31m15.38 53.239c6.347-4.49 9.938-13.8 17.413-18.143 9.988-5.804 12.177-2.306 33.183 8.692 7.186 3.762 12.882-14.099 21.932-17.892 15.028-6.3 21.751-10.556 51.107 6.639m78.676 114.169c-12.159-8.489-8.457-26.041-10.648-40.225m.592.592c-3.669-21.523.089-38.994-19.521-69.211m117.718 21.887c-13.026.291-26.233.394-40.817 5.324-13.668 8.445-16.536 14.19-17.746 19.521l-7.099 52.056c.871 7.468 4.935 10.146 8.873 13.014 13.211 4.996 26.423 8.071 39.634.592m-390.423-148.479c-11.112-32.465-19.043-68.111-25.437-105.296-8.607-28.194-2.78-61.542 10.648-97.606 18.586-60.09 47.458-109.894 73.352-162.676 4.756-47.153 11.111-93.303 82.225-98.789m-7.69 318.253c13.133-23.398 32.21-48.605 28.394-66.845l-8.282-10.648c15.333 7.071 30.692 14.299 41.408-7.099m-97.606 387.465c-13.559 9.241-25.864 7.199-37.859 2.366-26.2-20.933-37.658-43.972-33.008-69.313l-22.801-45.245c-2.574-14.332-7.444-24.836-5.713-46.344l-70.394-169.775c-10.204-16.334-9.451-33.763-3.938-51.668 15.553-65.054 56.368-148.065 83.797-221.036 6.169-64.24 23.331-100.998 47.324-120.676l139.606-56.789 130.141-85.183 132.507-78.084 104.113-59.155 42.592-56.789 47.324-21.296 16.563-30.761 18.93-3.346 16.563-13.217 49.69-16.563c28.639-1.233 37.831-8.948 54.423-14.197l383.324-298.141c244.058-164.863 294.588-218.75 411.718-260.282 50.615-29.952 110.941-54.561 151.491-77.607 187.698-106.67 259.294-145.671 307.551-156.647l-2.366 648.338-309.972 170.366c-104.059 46.816-205.046 94.656-321.803 137.239l-283.944 89.916c-51.091 13.442-65.267 21.205-168 42.592l-32.364 6.811m0 0c-26.764 8.345-122.693 62.575-126.171 57.076l-57.195 59.442c-52.775 62.704-63.073 135.959-80.045 200.84-22.176 33.622-50.611 65.158-99.38 89.916l-40.225 87.549-47.324 68.62c-13.196 45.747-19.916 91.493-49.69 137.239l-33.127 40.225c-5.179 44.66-3.243 85.724-24.253 118.901-20.677 1.805-45.541 12.71-65.662-17.155 14.431 16.498 18.813 34.432 2.104 55.378m-225.118-41.772c-10.982 14.131-5.7 26.584 9.827 33.893 11.147 15.665 24.788 23.619 48.103 1.673 6.556 16.255 8.474 35.553 49.358 29.28 30.642 24.035 50.003 13.197 68.599 0 13.832-3.541 19.867-10.981 22.588-20.078 10.91 6.609 20.188 7.099 26.643-2.996" stroke="#00000a" stroke-width="4"/><path d="M5934.423 2441.916z" stroke="#000"/></g><g fill="#fff"><path d="M1756.541 3104.252c-4.601-1.857-8.366-7.14-8.366-11.74s-12.047-31.23-26.771-59.176-26.771-58.375-26.771-67.619-6.002-41.844-13.338-72.445-13.36-66.404-13.385-79.563c-.061-31.029 24.56-102.742 58.419-170.161 14.79-29.448 29.132-66.938 31.873-83.312 5.564-33.245 33.884-67.272 55.989-67.272 7.428 0 15.366-3.012 17.641-6.693 5.882-9.517-13.364-8.279-39.217 2.523-22.874 9.557-44.44 43.811-44.44 70.583 0 7.807-12.152 38.364-27.004 67.903-42.332 84.195-68.709 169.5-63.827 206.427 3.784 28.619 2.432 26.877-19.969-25.738-28.634-67.255-28.666-67.013 27.336-206.559 20.021-49.888 39.891-108.442 44.156-130.12 12.489-63.481 24.824-75.67 116.273-114.9 44.171-18.949 104.405-50.782 133.852-70.742s108.438-68.297 175.534-107.418c98.812-57.612 126.53-77.07 145.871-102.4 13.133-17.2 28.489-31.272 34.125-31.272s19.803-9.716 31.483-21.59c28.128-28.597 54.966-42.631 109.729-57.381 42.27-11.385 58.581-22.497 239.446-163.129 280.776-218.318 461.71-341.835 598.989-408.908 60.735-29.675 170.073-86.982 242.973-127.35 122.623-67.902 205.033-107.697 210.893-101.838 1.33 1.33.211 145.55-2.486 320.489l-4.905 318.071-157.985 86.532c-155.978 85.433-281.735 145.286-412.304 196.234-91.565 35.728-348.53 115.708-458.444 142.689-211.398 51.892-287.588 116.014-331.118 278.67-18.57 69.39-37.029 97.549-84.225 128.486-25.999 17.042-35.71 28.896-47.687 58.209-8.272 20.245-27.364 54.879-42.426 76.965-15.186 22.267-32.777 59.535-39.487 83.658-14.476 52.042-37.321 99.002-56.668 116.485-7.76 7.012-14.109 16.8-14.109 21.751 0 5.029-7.057 9.002-15.99 9.002-27.633 0-44.189 19.872-48.687 58.437-3.786 32.462-2.92 35.478 11.892 41.405s14.958 6.423 1.955 6.816c-21.587.653-34.571-19.072-43.829-66.584-16.087-82.564-11.927-123.069 19.644-191.271 15.492-33.466 28.167-66.04 28.167-72.386s3.14-17.406 6.978-24.577c8.689-16.235 1.216-59.7-10.264-59.7-4.669 0-28.609-10.126-53.2-22.503l-44.712-22.503-37.785 39.614c-31.078 32.582-40.605 38.906-53.671 35.627-13.707-3.44-15.282-2.087-11.489 9.865 4.652 14.658-21.331 66.661-44.467 88.995-10.32 9.963-12.403 22.378-12.403 73.953 0 40.541-2.894 64.952-8.366 70.571-6.745 6.926-5.772 8.158 5.02 6.358 11.672-1.947 13.654 2.023 15.485 31.019 3.245 51.391-13.682 105.675-32.216 103.316-1.841-.234-7.111-1.945-11.712-3.802z"/><path d="M1752 3098.168c-5.784-5.784-10.523-14.066-10.531-18.405s-9.617-25.958-21.354-48.043-23.342-53.708-25.79-70.273-10.053-56.332-16.901-88.373c-15.811-73.98-10.602-101.881 39.29-210.43 20.054-43.631 38.57-91.076 41.146-105.434 5.313-29.609 35.683-64.246 56.331-64.246 7.428 0 15.657-3.482 18.287-7.737 7.403-11.979-37.382-1.096-52.759 12.82-16.281 14.734-31.544 44.019-31.544 60.523 0 7.002-14.664 44.044-32.586 82.317-44.691 95.437-57.18 136.039-56.403 183.361l.659 40.156-23.313-56.176c-27.773-66.923-27.88-66.14 28.353-208.522 20.191-51.125 39.584-108.101 43.095-126.614 6.842-36.075 20.491-66.993 34.734-78.678 4.844-3.974 38.924-19.717 75.733-34.983s106.078-52.654 153.93-83.082 130.165-80.473 182.917-111.21c70.554-41.11 103.124-64.439 123.188-88.233 15.001-17.791 31.553-32.346 36.781-32.346s19.062-9.716 30.742-21.59c27.443-27.9 56.091-43.271 103.482-55.523 45.833-11.849 52.562-16.452 267.81-183.205 273.258-211.693 428.439-316.165 593.603-399.631 77.3-39.063 183.981-95.221 237.069-124.795 86.747-48.324 187.538-98.681 197.513-98.681 4.988 0 4.769 139.332-.655 416.607l-4.419 225.867-151.862 83.296c-147.483 80.895-279.71 143.973-413.704 197.356-83.175 33.137-342.606 114.044-462.493 144.235-210.045 52.896-292.323 123.336-333.732 285.72-15.563 61.028-30.758 84.171-78.352 119.33-26.859 19.842-39.899 35.757-53.25 64.988-9.724 21.291-29.213 56.781-43.309 78.867s-31.981 61.237-39.745 87.004-20.919 57.637-29.232 70.823l-28.5 45.133c-8.188 12.943-18.944 21.175-27.702 21.201-26.034.077-42.607 20.691-47.014 58.479-3.786 32.462-2.92 35.478 11.892 41.405s14.958 6.423 1.955 6.816c-21.885.662-36.328-21.214-44.554-67.482-14.134-79.504-10.525-124.072 14.281-176.374 40.796-86.016 56.139-170.662 30.934-170.662-4.649 0-28.573-10.126-53.165-22.503l-44.712-22.503-37.785 39.614c-31.078 32.582-40.605 38.906-53.671 35.627-13.523-3.394-15.259-2.014-11.675 9.279 4.775 15.045-13.772 55.313-39.632 86.046-15.48 18.397-17.051 25.757-17.051 79.867 0 38.638-2.943 62.624-8.366 68.192-6.745 6.926-5.772 8.158 5.02 6.358 11.672-1.947 13.654 2.023 15.485 31.019 2.361 37.392-9.072 91.15-20.999 98.736-11.427 7.268-15.727 6.437-27.47-5.306zm52.194-133.882c-9.836-31.424-1.751-38.421 14.954-12.941 12.865 19.623 13.13 22.08 3.058 28.37-9.11 5.689-12.241 3.007-18.012-15.429zm24.415-17.897c-29.258-44.527-37.929-99.403-18.486-116.998 10.787-9.762 13.332-9.971 18.671-1.53 10.226 16.166 7.287 45.413-5.27 52.44-6.411 3.588-9.716 8.464-7.344 10.835s10.325.557 17.674-4.033c11.762-7.345 17.471-4.904 47.678 20.386 47.3 39.602 60.575 64.226 30.565 56.693-10.462-2.626-22.974-.154-33.228 6.565-9.046 5.927-18.86 10.777-21.81 10.777s-15.752-15.811-28.45-35.136zm67.471-36.346c-54.91-54.045-71.862-95.545-53.273-130.417 6.539-12.267 12.015-27.574 12.17-34.016.411-17.178 31.593-15.647 37.138 1.823 5.93 18.684-2.911 54.754-15.984 65.212-9.638 7.71-9.218 8.459 3.806 6.788 11.006-1.412 22.301 7.979 45.5 37.828 26.625 34.257 30.586 43.371 28.862 66.406-1.099 14.685-5.01 27.113-8.691 27.617s-25.968-18.055-49.527-41.242zm9.372 265.592c-7.362-3.169-21.307-7.45-30.99-9.513-10.793-2.299-19.124-9.561-21.532-18.767-3.112-11.901-5.638-13.305-12.177-6.766-12.096 12.096-28.608 10.086-42.407-5.162-10.506-11.609-10.99-15.884-3.602-31.79 4.695-10.108 12.182-39.459 16.638-65.226l8.101-46.848h23.464c12.905 0 28.039-3.765 33.632-8.366 14.659-12.061 88.786-3.433 102.712 11.955 5.854 6.469 12.362 29.389 14.461 50.934s8.163 44.177 13.475 50.293c13.672 15.743 8.665 48.361-7.908 51.509-7.268 1.381-23.779 9.689-36.69 18.462-24.836 16.877-35.511 18.61-57.177 9.283zm135.661-84.104c-5.504-5.504 2.216-58.383 9.953-68.177 3.635-4.601 14.797-8.366 24.806-8.366 17.982 0 18.135.377 12.965 31.79-2.878 17.485-5.412 35.555-5.632 40.156-.393 8.233-34.708 11.981-42.092 4.597z"/><path d="M2041.113 3091.531c-5.504-5.504 2.216-58.383 9.953-68.177 3.635-4.601 14.857-8.366 24.939-8.366 19.684 0 19.225-2.498 10.144 55.214-3.471 22.056-6.211 25.097-22.608 25.097-10.262 0-20.355-1.696-22.427-3.768z"/></g></svg>