<svg xmlns="http://www.w3.org/2000/svg" width="5376" height="4032"  fill="none" stroke="#000" stroke-width="10" xmlns:v="https://vecta.io/nano"><path d="M2712.911 1030.352c-34.586-1.652-69.594-1.079-91.41 1.218l-40.798-2.412-51.412 4.221c-46.84 4.832-85.825 17.52-129.476 25.541l-99.691 18.233c-22.007 5.081-48.308 9.933-80.448 20.251-50.073 16.097-87.399 46.545-111.452 61.624-25.732 10.415-49.727 30.672-69.069 57.308l-22.684 21.442-17.263 32.875c-21.38 25.946-22.366 51.893-32.221 77.839l3.445 120.568c9.815 31.867 25.146 60.785 48.609 94.437 43.062 50.278 61.955 58.709 99.9 103.344 21.844 12.359 49.727 20.752 68.205 32.526 12.84 8.182 31.345 21.733 43.874 27.671 43.934 15.654 62.01 26.81 105.78 37.475 59.049 23.485 119.069 27.749 181.357 31.803l132.005 8.735 97.788 6.471c91.715-3.541 180.995-11.952 263.024-34.866 73.312-26.291 139.119-58.901 196.145-91.792 65.697-37.237 89.254-71.869 113.47-115.488 23.955-31.445 47.023-73.44 48.436-120.986-3.77-43.304-15.689-82.532-32.43-119.35-17.59-36.286-57.453-65.148-93.637-95.237l-84.066-60.998-134.348-72.341c-43.97-19.927-91.239-38.204-148.127-51.672l-105.744-14.579zm-790.706 547.22l1.722 902.54c106.846 246.945 390.942 304.944 668.293 368.595 264.605-24.358 529.338-50.682 812.975-366.872h0l-4.75-834.531h0c-38.475 76.881-79.27 139.836-124.228 177.817-158.676 126.203-370.087 159.358-621.141 153.458-209.784 11.97-388.475-38.248-552.938-116.921-81.242-77.111-157.95-151.619-175.381-260.636-13.547-111.793 16.405-189.83 38.974-248.457v-2.436" opacity="1"/><path d="M3400.445 1647.304c26.701-165.402-27.679-219.835-56.024-299.609"/></svg>